<?xml version="1.0" encoding="UTF-8"?>
<svg id="Layer_1" data-name="Layer 1" xmlns="http://www.w3.org/2000/svg" viewBox="0 0 213.32 125.6">
  <defs>
    <style>
      .cls-1 {
        fill: #9c4a24;
      }
    </style>
  </defs>
  <path class="cls-1" d="M167.46,6.8c.09-.23-.64-1.06-.74-.83-.09.25.64,1.06.74.83Z"/>
  <path class="cls-1" d="M169.32,10.2s-.28.11-.32.13c-1.66.72,1.98.51.32-.13Z"/>
  <path class="cls-1" d="M177.15,34.25c.57-.57-.47-1.96-.83-1.92-.83.08-.04,2.79.83,1.92Z"/>
  <path class="cls-1" d="M178.28,36.81c.13-1.34-1.24-1.75-1.17-1.79-.02.02.94,3.94,1.17,1.79Z"/>
  <path class="cls-1" d="M183.67,53.54c.25.09.66-.26.17-.45-.25-.11-.66.26-.17.45Z"/>
  <path class="cls-1" d="M204.78,108.01c0-.21.91.08.79.08.4,0,.49-.26.77.04.3.3-.02,1.21.38,1.73.64.89,1.51.66,1.7.41.62-.81-1-2.34-1.11-2.56-.3-.64.17-.53-.41-.96-.26-.21-.6-1.13-.89-1.15-.98-.08-1.3,2.09-1.23,2.41Z"/>
  <path class="cls-1" d="M209.04,113.42c1.47.15,0-2.05-.19-2.19-1.73-1.26-.64,2.11.19,2.19Z"/>
  <path class="cls-1" d="M211.51,117.33c-.49-1-.49-2.41-.81-2.71-.51-.47-1.07.25-1.89.06-1.72-.4-.45-1.7-1.81-.73.11,0-.04.66-.06.79-.26,1.64.43-.3.77.06,1.3,1.3.43,1.6,1.75,2.28,1.23.62.53.62,1.17,1.77.09.17,1.21.85,1.21,1-.06.13-1.45.72-1.6.72,0-.06-.6-.51-.6-.51-.64-.43-.13-1.75-1.21-1-.64.45.38.66.41.96.04.26-.75.72-.21,1.24.55.55.94-.49,1.55.08.17.13.15.45.26.62-.11,0-.4.32-.62.66h.66c.09-.28.15-.57.3-.77.32-.45,2-1.77,2.02-2.41,0-.73-.72-.9-1.3-2.09Z"/>
  <path class="cls-1" d="M213.19,121.17c-.08-.04-.24.13-.32.13-.26,0-.58.41-.51.6.06.11.62.06.96-.11v-.55s-.08-.06-.13-.08Z"/>
  <path class="cls-1" d="M3.52,6.26c.22.07.13-.36,0-.37-.2-.02-.21.3,0,.37Z"/>
  <path class="cls-1" d="M.93,59.69c-.28-.28-.26.09-.56.56-.29.45-.35.2-.19.56.43.97,1.17-.68.74-1.11Z"/>
  <path class="cls-1" d="M1.3,70.45c0-.28-.06-.65-.37-.56-.13.04-.72.51-.56,1.3,0,.01.18-.01.19,0,0,0,.37,0,.37,0-.02.26-.18,1.57.56.93.5-.43-.23-.36-.37-1.11.01.07.19-.37.19-.56Z"/>
  <path class="cls-1" d="M1.85,22.58c.04.08.22.71.56.37.63-.63-1.09-1.39-.56-.37Z"/>
  <path class="cls-1" d="M1.67,16.28c.1.1-.04.19.19.19.81-.01-.28-1.04-.37-.93-.18.22.13.69.19.74Z"/>
  <path class="cls-1" d="M2.04,20.54c.11.04.4-.28.37-.37-.15-.49-1.04.12-.37.37Z"/>
  <path class="cls-1" d="M1.11,7.19c.95,0-.85-.67-.19,0,.02.02.16,0,.19,0Z"/>
  <path class="cls-1" d="M1.48,19.06c.07.13.27.51.56.37,1.07-.52-1.18-1.52-.56-.37Z"/>
  <path class="cls-1" d="M.93,7.56c-.32.32.3.99.19.93.49.25.34-1.45-.19-.93Z"/>
  <path class="cls-1" d="M1.3,9.78c.08.08-.03.23.19.19.96-.21-1.01-1.01-.19-.19Z"/>
  <path class="cls-1" d="M.55,50.78c.49-.1.08-.74,0-.74-.16,0-.34.81,0,.74Z"/>
  <path class="cls-1" d="M1.11,12.38c-.17.17.16.53.19.56.69.88.49-1.23-.19-.56Z"/>
  <path class="cls-1" d="M.74,33.34c.82.39.58-1.69-.19-.93-.38.38.05.86.19.93Z"/>
  <path class="cls-1" d="M.37,25.18c.24.13.46-.26.19-.56-.48-.52-.49.39-.19.56Z"/>
  <path class="cls-1" d="M.74,40.58c.54.99.94-.86.19-.93-.17-.02-.44.45-.19.93Z"/>
  <path class="cls-1" d="M1.11,35.39c-.33-.12-.98.47-.37.74.69.31.71-.62.37-.74Z"/>
  <path class="cls-1" d="M17.44,124.07c-.27-.03-.2.53-.19.56.43.88.88-.48.19-.56Z"/>
  <path class="cls-1" d="M24.12,124.44s0-.32,0-.37c-.07-1.19-.26.64,0,.37Z"/>
  <path class="cls-1" d="M2.04,24.25c-.64.53.22.19.19,1.11-.02-.05.54-.16.56-.19.26-.45-.37-1.24-.74-.93Z"/>
  <path class="cls-1" d="M16.46,123.71s-.09,0-.14-.01c.1.04.13.04.14.01Z"/>
  <path class="cls-1" d="M.93,77.5c-.2-.02-.21.3,0,.37.22.07.13-.36,0-.37Z"/>
  <path class="cls-1" d="M1.85,107.37c-.37.25-.4,1.38-.19,1.48.39.18,1.12-2.12.19-1.48Z"/>
  <path class="cls-1" d="M.93,79.36c.35.35,1.06-.9.56-1.11-.53-.22-.99.68-.56,1.11Z"/>
  <path class="cls-1" d="M3.52,24.63c.42-.25-.23-.93-.37-1.86-.02-.12.27-1.01,0-1.11-.79-.29-.37,2.14-.37,2.23,0,.06-.32.14-.19.37.13.21.67.53.93.37Z"/>
  <path class="cls-1" d="M2.78,21.1h0c.72-.46-.62-.27,0,0Z"/>
  <path class="cls-1" d="M182.49,122.9s.72.28.87.19c.55-.35-.9-.54-.87-.19Z"/>
  <path class="cls-1" d="M152.79,122.9s.72.28.87.19c.55-.35-.9-.54-.87-.19Z"/>
  <path class="cls-1" d="M143.47,123.27s-.29,0-.29,0c.38,1.1,2.42.13,2.33,0-.41-.61-1.83-.12-2.04,0Z"/>
  <path class="cls-1" d="M174.04,122.72c-.87.56,3.31,1,3.2.19-.06-.46-3.1-.25-3.2-.19Z"/>
  <path class="cls-1" d="M127.45,122.9c-1.27.81,2.14,1.95,2.62.93.36-.78-2.24-1.17-2.62-.93Z"/>
  <path class="cls-1" d="M35.14,123.65c-.75.48,1.12.43.87,0-.13-.24-.71-.1-.87,0Z"/>
  <path class="cls-1" d="M140.85,123.27s-.68-.22-1.16-.19c-1.23.09-3.5-.2-3.79,0-1.02.73,1.22,1.18,2.62.93.37-.07.52-.35.87-.37,0,0,.5.35.87.37.44.02.73-.27,1.16-.37.02,0,1.52.21.87-.56-.6-.72,0,.12-1.46.19Z"/>
  <path class="cls-1" d="M131.82,123.27c-.27.84,3.12,1.19,2.33,0-.28-.42-2.34.03-2.33,0Z"/>
  <path class="cls-1" d="M156.91,2.1c.34-.33-.29-.71-.49-.51-.42.4.03.96.49.51Z"/>
  <path class="cls-1" d="M158.94,1.89c.14-.14.02-.51-.25-.26-.14.14-.02.51.25.26Z"/>
  <path class="cls-1" d="M152.61,2.51c.91.42,1.47-1.72.27-1-.46.28-.89.72-.27,1Z"/>
  <path class="cls-1" d="M94.04.54c-.19-.2-.74.13-.76.24-.05.24,1.16.17.76-.24Z"/>
  <path class="cls-1" d="M151.62,1.73c-.02-.1-.79-.63-1.01-.02-.29.82,1.14.6,1.01.02Z"/>
  <path class="cls-1" d="M13.94,1.41s0,.22,0,.25c-.03,1.3.93-1.14,0-.25Z"/>
  <path class="cls-1" d="M24.26,2.88c.63-.61-1.12-.65-.51-.01.02.02.48.03.51.01Z"/>
  <path class="cls-1" d="M84.68,1.36c.34.04.02-1.25-.24-.51-.07.19.09.49.24.51Z"/>
  <path class="cls-1" d="M109.94,1.38c-.12-.48-.6-.35-1.01-.02-1.11.9,1.21.82,1.01.02Z"/>
  <path class="cls-1" d="M124.07,2.17c1.84-.26-.3-1.78-.97-1.79,0,0,0,.25,0,.25-.49.1-1.12.36-1.03.74.1.4,1.78.83,2.01.8Z"/>
  <path class="cls-1" d="M115.51.73c-.16-.17-.48.22-.51.24-1,.96,1.2.47.51-.24Z"/>
  <path class="cls-1" d="M104.15.5c-.18-.5-1.17-.39-1.26-.03-.11.44,1.62,1,1.26.03Z"/>
  <path class="cls-1" d="M104.65.51s0,.22,0,.25c-.03,1.3.93-1.14,0-.25Z"/>
  <path class="cls-1" d="M128.35,2.77s0,.22,0,.25c-.03,1.3.93-1.14,0-.25Z"/>
  <path class="cls-1" d="M131.68.81c-.03.06-.05.71-.02.76.83.94.72-2.3.02-.76Z"/>
  <path class="cls-1" d="M130.4,1.29c-.04-.52-.54-.72-1-.27-1.05,1.01,1.11,1.58,1,.27Z"/>
  <path class="cls-1" d="M126.36,1.21s-.61-.35-.51-.01c.05.18.53.38.51.01Z"/>
  <path class="cls-1" d="M135.19,2.15c.34-.23.31-1.2.28-1.26-.23-.5-.46.5-1.02.48-.4-.01-.64-1.02-1.01-.27,0,0-.57.49-.27.75-.01,0,1.86.4,2.02.29Z"/>
  <g>
    <path class="cls-1" d="M208.01,121.53c-.44-.68-1.14,0-1.53-.87-.04-.09-.32-.54-.28-.64.03-.09.64-.19.64-.28-.06-.85-1.57-3.36-2-3.71-.23-.19-.76.43-1.1.11-.07-.08-.43-.87-.43-.96.72-1.83,2.62,1.02,2.9,1.39.87,1.19.31,1.91,1.49,1.64.74-.17-2.03-3.26-2.18-3.26-.08-.88,1.6-.15,1.02-1.15,0,.19-1.32-.24-1.27-.24-.22-.06-1.19.02-1.22-.23-.06-.4.69-.32.64-.28,1.88-.89-.27-.55-.7-1.6-.21-.5.43-.29.49-.61.04-.19-.43-1.11-.57-1.28-.54-.74-1.64,2.26-1.22-.23.19-1.2-.87-.39-.89-1.13,0-.19.93-.43.81-.73-.17-.53-.37-.74-.73-.83-.23-.06.09-.57.19-.45-.59-.78-1.44-.72-1.66-1.19-.11-.25.53-1.45.53-1.38-.21-1-1.42-.49-.93-1.07-.26.49,3.17-.78,3.23-.7.64,1.15-1.44,1.92-1.51,1.81.41.66,1.37,1.17,1.66,1.17.28.02.68-.47.96-.42.05.02.51.47.6.51,1.15.47,1.36-.58.87-1.52-.55-1-.93-.46-1.21-1-.15-.29-.05-1.49-.66-2.4-.58-.85-.43-1.15-.85-1.92-.2-.4-.9-.51-1.18-1-.21-.34-.14-1.24-.38-1.73-.79-1.47-1.34-2.59-1.83-4.17-.15-.47-.66-.57-.73-.83-.06-.13.33-.94.22-1.24-.04-.08-.96-.42-1.07-.68-.06-.13.3-.61-.1-1.1-.45-.56-.94-.47-1.2-.99-.29-.61-.19-1.95-.61-3.17-.22-.62-.64-.59-.88-1.15-.49-1.08-.08-1.81-.53-2.06.04.02-1.49-.11-1.57-.09-1.86.58-2.62,3.77-3.84,1.68-.4-.68.92-.49,1.02-1.19.07-.66-.95-.55-.44-.96.36-.3,1.79.62,2.44.45-.16,0,1.24-1.02,1.2-.89.25-.77-1.64-2.73-1.73-3.07-.25-1.05.62-1.19.41-1.69-.17-.4-.86-.68-1.34-1.34-.35-.46-.45-1.44-.84-1.93-.29-.34-.89-.3-1.06-.67.08,0,.36-.83.36-.93.02-.22-.08-1-.1-1.09-.34-.98-2.01-2.02-2.22-2.47-.21-.45.11-1.28-.06-1.89-.75-2.58-3.07-6.16-3.92-8.97-.58-1.94-2.47-4.45-1.73-5.73.11-.19,1.52.23,1.28-.55-.53-1.64-1.47.21-2.02-.26-.04-.02-1.24-1.85-1.26-2.88-.02-.21.62-.06.77.03h.02c1.17-.49-.39-3.01-.55-4.73-.18-2.03,1.06-1.43-.01-2.66-.17-.19-1.36,1.32-1.8,1.15-.15-.05-.32-.81-.41-.94-.43-.6-.36-.34-.42-.96-.07-.66-.77-.55-.88-1.15-.09-.47.3-1,.07-1.57-.6-1.5-1.73-2.6-2.13-4.03-.15-.49.38-1.51.27-2.02-.4-1.69-1.72-2.52-2.47-3.88-.55-1-.59-2.19-1.08-3.34-.32-.75-.99-1.37-1.3-2.11-.35-.88-.37-1.64-.66-2.39-.13-.32-1.11-1.26-.84-1.92.03-.08.64-.21.64-.27-.1-.66-.72-.55-.87-1.15-.06-.21.38-.34.04-.77-.36-.47-.76.04-1.06-.7-.28-.62.36-1.09.08-1.54.02.01-.68.05-.78-.06-1.11-1.08.49-1.06.53-1.38,0,.02-1.23-2.56-1.12-2.56-.34-.19-.8.63-1.1.09-.13-.26.68-1.2.41-1.69-.49-.93-1.19.26-1.53-.87-.01-.06.78.06.8.04.34-.29.32-.47.15-.63h-8.44c.09-.05.16-.11.16-.14-.01-.23-1.1-.48-1.01-.02.01.07.03.12.06.16h-2.63c.28-.08.37-.27.05-.72,0,0-1.23-.12-1.77-.04-2.02.33.43-.72-1.48-1.54.01,0-.01.25-.01.25-.25.03-.33.4-.26.75.02.11.64.01.23.76-.02.04-.69-.42-1-.27-.2.1-.17.49-.06.81h-1.22c.11-.09.18-.26.26-.58.07-.26-.43-.31-.49-.51-.07-.22.25-.34.26-.5.1-1.19-.96-.41-1.76-.54-.61-.11-.69-.97-1.25-.28-1.04,1.25.9.75,1.49,1.04.04.01-.04.5-.01.5.73.08.78-.82,1.01-.26-.1-.12-.14.77-.22,1.13h-3.24c.74-.45,1.1-1.75-.06-1.42-.36.09-1.12,1.1-.86,1.42h-1.64c.74-.43,1.25.12.96-.7-.19-.58-2.42.01-2.52-.3-.1-.33,1.03-.99,1.04-.99,1.03-1-1.31-.26-2.02-.3-1.28-.06-1.35-.66-1.76-.29-.55.5,1.23,1.12,1.23,1.29-.06,0-1.44.94-1.78.98,0-.05-.47-.49-.75-.52-.47-.06-.57.22-1.02.23-.5.01-1.95-.19-2.52-.31-.37-.08-.45-.23-1-.27-.39-.03-.58.58-.64,1.18h-2.09c.06-.22.05-.46-.06-.73-.16-.37-.45-.51-1-.28-.8.33-.56.7-.25,1.01h-.63c.08-.09.12-.18.1-.27-.12-.62-2.94-.63-3.02-.56-.01.01-.25-.02-.25-.01-.01.36.06.63.17.84h-3.87c.25-.13.43-.38.16-.66-.16-.17-.49.22-.51.24-.21.21-.27.34-.26.42h-.61c.3-.41.33-1.01.13-1.19-.04-.03-1.82.17-1.82.21-.23-.01-.81-.11-.97-.02-.18.12.09.51-.26.5-.31,0-.76-.49-1-.52-.86-.11-1.44.15-1.78.47-.17.16-.3.08-.51.24-.08.06-.11.19-.13.31h-1.19c.03-.06.06-.16.06-.34.01-.63-.44.24-1.01-.02-.07-.03.06-.45.01-.5-.3-.31-.67.53-.77.49-.06-.03.06-.46.01-.51-.08-.08-.42.08-.5-.01-.46-.51-.1-.72-.74-.77.17,0-.55,1-.53,1-.24.08-1.53-.31-1.51-.29-.15-.15.45-.46.27-.75-.16-.26-.77.24-.76.24-.1.06.24.45.24.51-.02.52-.77.41-.54.95h-.41c.03-.1.02-.25-.07-.47-.19-.43-1.71-.53-1.76-.54-.12-.02-.68.06-.76-.01-.44-.48.07-2,.04-2.03-.75-.63-.23.3-1.26.23-.63-.04-.84-.74-1.76-.54-.78.16-1.09.98-1.79.97,0-.02.52-.7.52-.74-.21-.26-2.09-.34-2.53.2-.06.07.02,1.69.21,2.02.15.25.65-.14.75.27.2.77.38.4.69.64h-1.69c-.08-.18-.16-.38-.26-.41-.5-.19-.54.38-.76-.02-.56-1,.27-2.03-.46-2.54-.27-.19-.7.26-1.01.24-.82-.08-.44-.25-1.02.23-.55.46-.49-.03-.75-.27-.77-.75-1.35.19-2.03.46-.29.12-.72-.12-1.01-.02-.07.03-.17.45-.26.5-.2.11-.65.19-.76.24-.78.37-1.19.38-1.28.48-.03.04-.2.8-.25,1.11h-.82c.25-.71.22-1.72-.44-1.14-.27.23-.46.73-.47,1.14h-.68c.16-.53.37-1.11.39-1.16.04-.08.46-.14.51-.24.24-.48.54-1.7.54-1.76-.51-.82-1.55.19-2.02.21-.47.02-.57-.22-1.01-.27-1.24-.16-2.83-.03-3.54.18-1.54.45-1.07,1.42-1.78.47-.61-.83-.75-.4-2.01-.3-.67.05-1.68-.13-2.28-.05-.84.13-1.76.69-2.54.71-.32.01-.33-.33-.75-.27-.5.07-.71.5-1.27.48-.16-.01-.95-.52-1-.53-1.85-.38-3.46.36-4.31.67-.94.35-.43.07-.75-.26-.37-.39-1.23.22-1.27.22-.1,0-.33-.3-.75-.27-.6.05-1.14.47-1.78.47-.05,0-.56-.51-.75-.52-.05,0-.58.3-1.01.23-.73-.11-3.04-.29-3.54-.07-.51.23-.33,1.29-1.02.48-.31-.36.1-.35-.49-.51-.45-.12-5.58.41-7.09.61-.74.1-1.02-.33-1.76-.29-.47.02-.48.37-1.02.48.02,0-.41-.33-.76-.26-.5.1-2.09.43-2.28.45-.25.03-.29-.27-.5-.26-.69.03-2.5.46-3.29.44-.11-.01-.31-.36-.75-.27-.48.1-.58.44-1.02.48-.29.03-.4-.24-.5-.26-.48-.09-.58.32-1.02.23-.34-.07-.28-.43-.49-.51-.87-.37-1.54.26-1.78.46-.92.81-.51.66-1.52.23-.22-.1-.46-.41-1.01-.28-.72.18-.22.79-1.02.74-.74-.05-.29-.53-.75-.77-.38-.21-.67.45-1.01.23-.18-.12.1-.51-.24-.51.12,0-.25.49-.27.5-1.3.67-2.14.1-3.03-.07-.63-.12-1.52.07-2.02-.04-.36-.08-.56-.49-1-.52-.19-.02-1.24.56-1.77.46-.77-.12-.47-.64-1-.52-.92.21-1.49.74-1.92,1.34h-2.95c-.14-.02-.28-.01-.41,0h-1.45c-.11-.33,1-.64.93-.75-.08-.13-.38-.17-.69-.21-.27.02-.52.05-.75.12-.68.19-1.33.75-2.01,1.31.13.02.24.03.3.08.11.09.08.63.18.74s.2.17.3.2v.35c-.54.03-.1.59-.11,1.12-.01.27-.27.34-.19.75.02.06.16.11.3.17v3.65c-.14-.29-.4-.62-.48-1.04-.04-.2.18-.29.18-.56,0-.18-.18-.66-.37-.55-.65.35-.01.64,0,.92.02.31.19.69.19.93-.01.17-.38.46-.19.74.02.03.48.01.67,0v4.66s-.07-.03-.11-.02c-.31.07-.32.61,0,.93.04.04.07.05.11.07v1.71s0,.05,0,.07v7.74c-.11-.01-.21-.1-.3-.32-.5-1.25-1.06.07-1.48,0-.27-.04-.08-.71-.19-.92-.02.48-.51.64-.55,1.11-.02.21.12,1.15.18,1.3.05.11.98.56,1.11.74.35.49.15,1.27.75,1.3.19,0,.34.05.48.1v1.93c-.25-.02-.15-.4-.48-.92-.51-.79-.89-.92-1.3-.37.02-.03.81.29.92.37-.05,0-.34.84-.25.95-.22.07-.69-.15-.86-.02-.75.56-.03,1.43,0,1.86.01.1-.16,1.47-.18,1.67-.04.25-.28.34-.19.74.06.25.24.21.37.37.35.42.18.59-.18.37-.71-.44-.37.08-.37.37,0,.24-.22.25-.19.56.02.27.25.33.19.74-.05.3-.4.68-.37.93.03.35.77,1.52.74,1.67-.01.05-.28-.02-.19.18.16.34.34.41.41.42-.05,0-.17.03-.41.14-.49.23.23.62.19.93-.04.26-.51.29-.56.74-.14,1.39.49,1.05-.37,1.48-.73.37.01.44.01.38.76.57-.39.38-.38.36-.12.15.07.57,0,.75-.25.58.44.18.56.74.16.75.24,3.49,0,4.08-.11.25-.55-.02-.56,0-.13.13.21.6.37.19.01-.04.34.23.19.37-.22.19-.76.27-.93.55-.12.19-.21,1.05-.19,1.12,0,0,1.05-.59,1.12-.56.38.16.18,1.61.74,2.41.19.29,1.03.45.74.74,0-.01-1.17-.08-1.3-.18-.34-.28.03-1.19-.56-1.11-.01,0-.67.83-.74,1.29-.02.18.3.26.37.37.04.06.19.56.19.56-.03.3-.98.53-.56.93.54.5.73-1.26,1.12-1.11.05.02-.01.83,0,.92.03.3.17.49,0,.93-.04.1-.36-.69-.56-.55-.13.08-.37.88-.19,1.11.4.5.5-.73.93-.19,0,0-.04,1.24,0,1.3.11.15.38.1.56.19.52.26.35.44-.19.37-.16-.02-.07-.21-.37,0-.23.15-.02.49-.18.74-.07.1-.47.07-.56.18-.13.16-.1.61-.19.75-.13.22-.37.12-.37.55,0-.09.38.33.38.37.63.19.59-.78.92-.92,1.25-.54-.27,1.16-.18,1.11-.54.31-1.25-.32-1.3.37-.03.32.37.07.55.19.05.03.16.32.19.37.36.58.46-.04.74.37.13.19.13.52.19.74.31,1.29-.32-.29-.93,0-.31.15-.08,1.08-.19,1.3-.1.21-.41-.1-.37.37.02.22.49.93.74.93.18,0,.32-.99.56-.56.31.56.07,3.43.19,3.9.13.52,1.01,1.38.18.93-.76-.42-.5.62-1.09.73,0-.07-.53-.34-.58-.18-.15.64.59,1.11.74,1.11.22.02.72-.69.93-.37.04.06.3.99.19,1.12-.32.36-1.31-.04-1.49.18-.03.05-.04.9,0,.93.33.28,1.05-.02,1.3.19.39.32-.01,1.23,0,1.29.08.44.49.9.56,1.3-.01-.03-.05.76-.01.76-.16.38-.82.64-.92.91.05-.13.18.16.19.19.21.71-.5,1.11-.56,1.3-.15.41-.18,1.3-.19,1.3.07.28.8-.45.93-.38,0,.04.13.57.18.57-.2.46-.92.81-.92,1.66,0,.35.54.46.74.56.64.32.1.43,0,.74-.18.58.11,1.12.19,1.3.54,1.27-.34-.25-.74.18-.12.12.17.6.18.75.06.6.58.27.74.74.14.39-.02,1.34,0,1.3-.18.33-.78-.22-.74.37.04.57.84.7.93.93.07.18-.04.79,0,1.11.03.26.26.51.18.74-.19.62-1.15.41-1.11,1.11,0,.06.44.19.56.19.74.01.37-.24.37.37,0,.08.18.33.18.37-.16.17-.93-.14-.92.19,0,.26.18.57.37.74.44.39.52-.26.55.37.04.81-.75.43-.92.74-.7,1.23,1.27,1.14,1.29,1.49.02.17-.47.01-.37,0-.9.15-.35.36,0,.55.67.37.12.74-.18.93-.88.55-.64.26-.56,1.48.01.14-.22,1.81-.18,1.86.21.29.79-.69.74,0-.03.35-.36.02-.56.19-.17.13-.35.9-.37,1.11-.02.2.17.89.19.93.16.38.07.61.74.55.46-.04-.21-1.16-.19-1.3.04,0,.53-.11.56-.18.23-.54.09-1.97.56-1.86.94.23-.04,5.45.37,8.91.06.56,0,1.03,0,1.48-.01.63.09,1.45.18,2.04.06.37.18.74.3,1.11v2.75c-.2.26-.43.6-.3.78.14.19.23.23.3.18v1.51h1.56c-.07.65.11,1.27.55,1.28,0-.07.54-.71.56-1.11,0-.06-.01-.11-.02-.17h.95c.12.24.26.45.55.53,0-.06.18-.36.19-.36.08-.07.16-.13.25-.17h.89c.42.13.81.39.99.58.02.01.06.04.1.14-.02-.04-.05-.08-.1-.14-.14-.01-.08,1.13.1,1.26.29.21.86-.44,1.3-.37.48.07.17.51.55.74.21.12.96.19,1.12.18-.12.01.03-.37.12-.59-.12.09-.14.08.06-.15,0,.01-.03.07-.06.15.21-.14.69-.54.8-.52.19.02.42,1.18.93.74.5-.42-.16-1.32.19-1.48.14-.07.71.46.69.57.17-.03.32-.2.42-.2.07,0,.24.22.56.18.19-.02.57-.3.92-.37.35-.06.42.21.75.19.05-.01.19-.35.36-.36,0,.04.42.37.56.17.38-.52-.03-.25-.15-.72h.55c.02.75-.12,1.75.16,2.21.24.39.64.17,1.11.37.09.04.03.3.19.37.64.25.92-.43.74-.93-.16-.46-.78-.16-.74-.55.01-.12.36-.74.37-.75.24-.22,1.4-.4,1.48-.55,0,0-.01-.07-.01-.17h.95c-.05.14-.07.25-.02.3.39.44,4.42.67,4.66-.18.01-.03-.06-.07-.16-.12h4.32c.33.1.57.21.79.3.13.06.45-.06.58,0,.24.11-.11.33.29.37,0-.04.28-.36.29-.37.87-.26,1.72.13,2.33.19,1.34.11,3.07.02,4.08.18.31.05.46.46.87.56.64.15,1.51-.08,1.75,0,.07.02-.15.68,0,.74.49.21,2.44,0,2.62,0,.38,0,.4.24.87.19.6-.07.85-.39,1.46-.37.46.01.99.49,1.46.55.68.1,2-.18,3.2-.18.04,0,1.6,0,1.75,0,.03,0,.22.35.29.37.98.29,1.46-.38,2.04-.37.73,0,1.71.43,2.33.37.49-.05.76-.39,1.16-.37.42,0,1.05.34,1.46.37,1.81.15,4-.07,6.11,0,3.15.09,6.39.37,9.61.37,2.04,0,4.08-.37,6.12-.37s4.65.04,6.99,0c.37-.01.39.2.87.18,3.38-.1,6.77-.31,9.61-.37.37,0,.4.21.87.19,1.11-.04,2.35-.08,3.21-.19.39-.05.77-.36,1.16-.37.33-.01.63.16,1.17.19,1.33.07,2.85.09,4.07,0,1.71-.13,2.74-.69,3.79-.37.97.29,1.49.07,2.91,0,1.72-.09,7.47.3,6.7-.75-.22-.29-3.26-.54-3.5-.55-.35-.02-.43.28-.87.18-.16-.03.24-.47.29-.67h24.93c-.27.31-.31.68.4,1.04.09.05,2.03.28,2.63.19.91-.15,1.55-1,1.45-1.11,0,.01-1.4.16-1.75.18.87-.04-1.17.38-1.16-.18,0-.05.02-.08.05-.12h9.27v.12c-.19-.02-.35.28-.3.35.06,0,.07.02.01.02-.01,0-.01-.02-.01-.02-.47-.14-3.7-.72-3.49.2.18.76,2.4-.03,3.21,0,.52.03.75.36,1.16.37.54.02,1.74-.15,1.75-.18.13-.51-.88-.75-1.62-.86h4.89c-.1.03-.22.07-.36.12-.19.06-1.31.38-.58.74.81.4,1.92-.37,2.03-.37.87-.04,1.48.45,1.75.18.84-.82-1.6-.33-2.04-.37-.39-.03-.32-.2-.33-.3h3.58c.15.29.3.62.54.67.97.23,2.48-.1,3.2-.18.35-.04,1.57.4,1.17-.37-.09-.16-1.1.13-1.39.17.03.01.02.02-.07.01.01,0,.04,0,.07-.01-.1-.03-.66-.13-1.09-.29h9.88c-.83.01-1.86.29-1.87.3-.25.51,3.84.35,2.62-.18-.18-.08-.43-.11-.71-.12h4.69c-.06.03-.12.07-.19.12-.13.07-.37-.03-.3.18.23.65.87-.03.87-.3h8.65c-.22.21.4.15.61,0h13.68c.06-.39.13-.81-.03-1.07ZM2.78,35.94s.03-.32,0-.37c-.06-.11-.26-.44,0-.56.55-.23.82,1.33,0,.93ZM2.41,102.54c-.35-.34.58-.89.74-.74.24.24-.55.94-.74.74ZM3.15,37.24c-.33.12-.07-.92,0-.93.21-.01.37.8,0,.93ZM4.19,34.08s-.06.01-.08.01c0,.08-.01.1-.03,0h.03c.01-.22-.02-1,.08-1.34v1.33ZM31.33,3.03c.55-.53.44.11.26.45h-.26v-.2s-.02-.23,0-.25ZM21.05,3.51h-.31c.14-.25.26-.16.31,0ZM29.74,57.33c2.27,0,5.03.56,7.89,1.45v5.78h-.2c-1.64-2.5-4.27-5.78-7.17-5.78-3.62,0-6.44,4.6-6.44,10.71s3.02,10.75,6.44,10.75c2.6,0,5.19-2.86,7.17-5.82h.2v5.82c-2.73.85-5.36,1.48-8.05,1.48-6.31,0-11.27-4.93-11.27-12.19s4.9-12.19,11.44-12.19ZM38.32,94.06h-.16c-.49-.36-3.48-5.06-6.25-5.06h-1.38v17.09c0,2.2.76,4.57.85,5v.13h-6.64v-.13c.1-.43.85-2.79.85-5v-17.09h-1.41c-2.73,0-5.72,4.7-6.25,5.06h-.13v-6.51h20.51v6.51ZM115.48,3.02c.04.06.16.28.27.46h-.84c.22-.18.53-.39.57-.46ZM109.39,3.39s.08.04.15.09h-.31s.1-.07.16-.09ZM105.1,3.3c.35,0,.7.08,1.02.18h-1.41c.13-.09.25-.19.39-.18ZM95.53,1.84c-.49,0-.03-.48.01-.51.86-.83.14.5-.01.51ZM90.71,2.75c.26-.74.72.17.8.73h-.58c-.11-.13-.31-.48-.22-.73ZM87.91,3.44s-.05.04-.08.04h-.11c-.25-.05-.58-.44-.55-.56.16-.77,1.21.08.74.52ZM86.55,3.48h-1.1c.39-.25.78-.62,1.1,0ZM70.94,57.33c3.06,0,6.15,1.05,8.12,1.87v5.23h-.16c-2.2-2.17-5.52-5.62-8.64-5.62-2.33,0-3.75,1.48-3.75,3.12,0,2.43,3.12,3.65,6.8,5.06,5.29,2.14,6.74,5,6.74,7.66,0,4.8-4.27,7.07-8.87,7.07-2.46,0-5.52-.76-8.74-2.1v-5.39h.23c2.37,2.43,5.55,5.98,9.01,5.98,2.1,0,3.91-1.25,3.91-3.52,0-2.76-2.76-4.04-6.38-5.36-4.08-1.45-7.1-3.45-7.1-7s3.09-7,8.84-7ZM56.79,111.22h-16.96v-.13c.1-.43.85-2.79.85-5v-13.41c0-2.2-.76-4.57-.85-5v-.13h16.86v5.59h-.13c-.56-.26-3.58-4.24-6.38-4.24h-4.57v9.6h1.97c2.76,0,5.75-1.48,6.25-1.61h.16v4.4h-.16c-.49-.13-3.48-1.61-6.25-1.61h-1.97v10.19h4.67c2.79,0,5.82-3.98,6.38-4.24h.13v5.59ZM53.6,81.32v-.13c.1-.49.76-2.96-.1-5.23l-.99-2.66h-8.61l-.59,1.64c-.95,2.7.2,5.65.33,6.21v.17h-4.7v-.1c.69-1.22,1.87-3.78,2.89-6.67l4.63-12.88c.62-1.71-.3-3.62-.39-3.91v-.1h5.85l6.9,18.34c.85,2.27,1.64,3.91,2.53,5.23v.1h-7.76ZM80.25,111.22h-5.92c-.92-.85-2.24-3.78-3.22-6.08-1.28-3.06-3.06-4.54-4.57-4.86h-1.51v5.82c0,2.2.76,4.57.82,5v.13h-6.61v-.13c.1-.43.85-2.79.85-5v-13.41c0-2.2-.76-4.57-.85-5v-.13h10.65c4.63,0,7.76,2.46,7.76,6.15s-2.79,5.72-6.74,6.11c2.01.46,3.62,1.61,4.73,3.58,1.87,3.42,2.53,5.75,4.6,7.69v.13ZM80.28,81.22c.69-1.22,1.87-3.78,2.89-6.67l4.63-12.88c.62-1.71-.3-3.62-.39-3.91v-.1h5.85l6.9,18.34c.85,2.27,1.64,3.91,2.53,5.23v.1h-7.76v-.13c.1-.49.76-2.96-.1-5.23l-.99-2.66h-8.61l-.59,1.64c-.95,2.7.2,5.65.33,6.21v.17h-4.7v-.1ZM93.49,105.14c-1.28-3.06-3.06-4.54-4.57-4.86h-1.51v5.82c0,2.2.76,4.57.82,5v.13h-6.61v-.13c.1-.43.85-2.79.85-5v-13.41c0-2.2-.76-4.57-.85-5v-.13h10.65c4.63,0,7.76,2.46,7.76,6.15s-2.79,5.72-6.74,6.11c2.01.46,3.62,1.61,4.73,3.58,1.87,3.42,2.53,5.75,4.6,7.69v.13h-5.92c-.92-.85-2.24-3.78-3.22-6.08ZM106.49,124.02c-.15,0-1.46-.19-1.46-.19-.38-.21.1-.79-.29-.93-.34-.11-.69.18-.87.19-.65.01-1.65-.41-.88.18.49.38.61.44-.29.56-1.39.18-.49-.9-.58-.93-.83-.27-2.78.07-3.4-.3h9.95c-1.08.29-1.41,1.39-2.18,1.42ZM119.88,123.27c-.05.08-.73.33-.87.37.05-.01-2.06-.05-2.34-.01,0,0,0,.01.01.01-.05,0-.05-.01-.01-.01-.03-.06.05-.33.01-.36-.4-.25-1.84.37-2.33.37-.76.01-1.49-.38-2.04-.37-1.63.05-1.45.68-1.75,0-.08-.19-.04-.47-.29-.55-.15-.05-.29-.09-.42-.12h6.53c.01.05.02.1.01.12-.02.03-.04.34,0,.37.61.38.82-.17.67-.49h2.79c.02.26.07.61.03.67ZM125.87,111.22h-7.76v-.13c.1-.49.76-2.96-.1-5.23l-.99-2.66h-8.61l-.59,1.64c-.95,2.7.2,5.65.33,6.21v.17h-4.7v-.1c.69-1.22,1.87-3.78,2.89-6.67l4.63-12.88c.62-1.71-.29-3.62-.39-3.91v-.1h5.85l6.9,18.34c.85,2.27,1.64,3.91,2.53,5.23v.1ZM133.66,3.48c.06-.07.14-.12.23-.09.05.01.1.05.13.09h-.36ZM148.54,3.48c.08-.1.16-.2.21-.25,0,.05.14.16.35.25h-.56Z"/>
    <path class="cls-1" d="M72.36,93.96c0-3.16-1.41-5.19-4.14-5.19h-3.19v10.19h3.09c2.73,0,4.24-1.71,4.24-5Z"/>
    <polygon class="cls-1" points="89.45 61.54 85.77 71.82 93.3 71.82 89.45 61.54"/>
    <polygon class="cls-1" points="108.95 101.72 116.47 101.72 112.63 91.43 108.95 101.72"/>
    <path class="cls-1" d="M94.74,93.96c0-3.16-1.41-5.19-4.14-5.19h-3.19v10.19h3.09c2.73,0,4.24-1.71,4.24-5Z"/>
    <polygon class="cls-1" points="44.43 71.82 51.96 71.82 48.11 61.54 44.43 71.82"/>
  </g>
</svg>