<?xml version="1.0" encoding="UTF-8"?>
<svg id="Layer_1" data-name="Layer 1" xmlns="http://www.w3.org/2000/svg" viewBox="0 0 220.5 119.12">
  <defs>
    <style>
      .cls-1 {
        fill: #919d9d;
      }
    </style>
  </defs>
  <path class="cls-1" d="M79.69.47c-.14-.14-.26-.3-.35-.47h12.67c1.21.88,2.87,1.2,4.35,1.68,3.97,1.3,7.3,4.28,11.04,6.35-4.45.21-8.99,1.12-13.09-.5-1.33-.53-2.57-1.32-3.92-1.81-.93-.33-1.9-.51-2.88-.65-.79-.12-2.06-.02-2.78-.36-.65-.31-1.12-1.16-1.65-1.68-.65-.63-1.37-1.2-2.14-1.68-.44-.27-.89-.52-1.25-.88Z"/>
  <path class="cls-1" d="M98.4.45c-.33-.16-.67-.31-1.01-.45h67.75l14.98,32.23c-.33,0-.65-.01-.96-.04-5.17-.44-9.14-4.62-12.56-8.54-3.42-3.9-7.3-8.11-12.48-8.68-4.03-.45-7.89,1.44-11.78,2.52-2.05.56-4.32.88-6.44.49-.99-.19-2.04-.87-3.05-1.3-1.74-2.13-3.93-4.08-6.39-5.65-4.78-3.04-10.32-4.54-15.58-5.28-1.6-.23-3.24-.41-4.83-1-2.72-1-5-3.05-7.65-4.3Z"/>
  <path class="cls-1" d="M169.21,28.74c3.13,3.03,7.37,4.83,11.72,5.24l11.24,24.18c-1.61-.65-3.32-1.17-4.89-1.85-4.72-2.01-8.47-5.6-12.26-8.94-1.59-1.4-7.92-7.52-11.04-7.4-1.74-1.4-3.67-2.56-5.78-3.38-3.8-1.49-7.8-1.72-11.53-3.48-2.74-1.28-5.08-3.29-7.38-5.24-.59-.51-1.21-1.05-1.62-1.67-.5-.73-.66-1.51-.88-2.27-.47-1.63-1.23-3.27-2.22-4.85,6.81,1.24,14.31-5.12,21.33-3.2,6.04,1.64,8.78,8.51,13.31,12.86Z"/>
  <path class="cls-1" d="M182.56,55.74c3.15,2.18,6.87,3.25,10.54,4.43l3.87,8.33c-4.66-1.76-9.95-1.84-13.76-5.06-2.16-1.84-3.34-4.34-5.52-6.15-.69-.58-1.46-1.09-2.08-1.71-.85-.86-1.32-1.88-1.8-2.86-1.66-3.39-3.89-6.91-6.73-9.89.64.22,1.23.42,1.7.64,5.57,2.65,8.69,8.76,13.78,12.27Z"/>
  <g>
    <polygon class="cls-1" points="81.67 66.44 89.2 66.44 85.35 56.16 81.67 66.44"/>
    <path class="cls-1" d="M46.75,83.19c-3.78,0-5.69,6.01-5.69,10.81s1.91,10.85,5.69,10.85,5.72-6.08,5.72-10.94-1.94-10.71-5.72-10.71Z"/>
    <path class="cls-1" d="M27.75,88.58c0-3.16-1.41-5.19-4.14-5.19h-3.19v10.19h3.09c2.73,0,4.24-1.71,4.24-5Z"/>
    <polygon class="cls-1" points="44.01 56.16 40.33 66.44 47.86 66.44 44.01 56.16"/>
    <path class="cls-1" d="M199.89,74.77l-2.1-4.53c-.82-.43-1.68-.79-2.56-1.02-1.41-.35-2.78-.32-4.19-.54-3.84-.59-7.54-2.98-10.98-5.26-1.93-1.28-3.9-2.6-5.36-4.27-1.03-1.18-1.73-2.5-2.54-3.76-4.72-7.59-12.76-14.27-21.66-18.02-1.5-.64-3.03-1.2-4.44-2.05-1.22-.74-2.29-1.68-3.34-2.61-3.39-2.98-6.84-6.02-9.27-9.52-1.13-1.63-2.03-3.34-3.36-4.9-2.59-3.03-6.58-5.11-10.45-6.29-3.13-.95-6.29-1.44-9.35-2.61-.66-.11-1.32-.18-2-.13-2.47.18-4.91.75-7.39.83-5.57.21-11.08-1.85-16.18-4.27h.02s-.05-.02-.07-.03c-.05-.02-.1-.04-.15-.07-1.41-.67-2.79-1.36-4.13-2.04-.52-.26-1.04-.52-1.48-.9-.87-.74-1.33-1.84-1.99-2.78H0v119.12h220.5l-20.61-44.35ZM34.84,75.84c.69-1.22,1.87-3.78,2.89-6.67l4.63-12.88c.62-1.71-.29-3.62-.39-3.91v-.1h5.85l6.9,18.34c.85,2.27,1.64,3.91,2.53,5.23v.1h-7.76v-.13c.1-.49.76-2.96-.1-5.23l-.99-2.66h-8.61l-.59,1.64c-.95,2.7.2,5.65.33,6.21v.17h-4.7v-.1ZM25.64,51.95c2.27,0,5.03.56,7.89,1.45v5.78h-.2c-1.64-2.5-4.27-5.78-7.17-5.78-3.62,0-6.44,4.6-6.44,10.71s3.02,10.75,6.44,10.75c2.6,0,5.19-2.86,7.17-5.82h.2v5.82c-2.73.85-5.36,1.48-8.05,1.48-6.31,0-11.27-4.93-11.27-12.19s4.9-12.19,11.44-12.19ZM35.64,105.84h-5.92c-.92-.85-2.24-3.78-3.22-6.08-1.28-3.06-3.06-4.54-4.57-4.86h-1.51v5.82c0,2.2.76,4.57.82,5v.13h-6.61v-.13c.1-.43.86-2.79.86-5v-13.41c0-2.2-.76-4.57-.86-5v-.13h10.65c4.63,0,7.76,2.46,7.76,6.15s-2.79,5.72-6.74,6.11c2,.46,3.62,1.61,4.73,3.58,1.87,3.42,2.53,5.75,4.6,7.69v.13ZM46.75,106.2c-6.24,0-11.21-5.03-11.21-12.26s4.96-12.09,11.21-12.09,11.24,4.9,11.24,12.09-5.03,12.26-11.24,12.26ZM65.1,65.95c-4.08-1.45-7.1-3.45-7.1-7s3.09-7,8.84-7c3.06,0,6.15,1.05,8.12,1.87v5.23h-.16c-2.2-2.17-5.52-5.62-8.64-5.62-2.33,0-3.75,1.48-3.75,3.12,0,2.43,3.12,3.65,6.8,5.06,5.29,2.14,6.74,5,6.74,7.66,0,4.8-4.27,7.07-8.88,7.07-2.46,0-5.52-.76-8.74-2.1v-5.39h.23c2.37,2.43,5.55,5.98,9.01,5.98,2.1,0,3.91-1.25,3.91-3.52,0-2.76-2.76-4.04-6.38-5.36ZM68.71,106.23c-2.46,0-5.52-.76-8.74-2.1v-5.39h.23c2.37,2.43,5.55,5.98,9.01,5.98,2.1,0,3.91-1.25,3.91-3.52,0-2.76-2.76-4.04-6.38-5.36-4.08-1.45-7.1-3.45-7.1-7s3.09-7,8.84-7c3.06,0,6.15,1.05,8.12,1.87v5.23h-.16c-2.2-2.17-5.52-5.62-8.64-5.62-2.33,0-3.75,1.48-3.75,3.12,0,2.43,3.12,3.65,6.8,5.06,5.29,2.14,6.74,5,6.74,7.66,0,4.8-4.27,7.07-8.88,7.07ZM88.64,106.23c-2.46,0-5.52-.76-8.74-2.1v-5.39h.23c2.37,2.43,5.55,5.98,9.01,5.98,2.1,0,3.91-1.25,3.91-3.52,0-2.76-2.76-4.04-6.38-5.36-4.08-1.45-7.1-3.45-7.1-7s3.09-7,8.84-7c3.06,0,6.15,1.05,8.12,1.87v5.23h-.16c-2.2-2.17-5.52-5.62-8.64-5.62-2.33,0-3.75,1.48-3.75,3.12,0,2.43,3.12,3.65,6.8,5.06,5.29,2.14,6.74,5,6.74,7.66,0,4.8-4.27,7.07-8.87,7.07ZM98.6,75.94h-7.76v-.13c.1-.49.76-2.96-.1-5.23l-.99-2.66h-8.61l-.59,1.64c-.95,2.7.2,5.65.33,6.21v.17h-4.7v-.1c.69-1.22,1.87-3.78,2.89-6.67l4.63-12.88c.62-1.71-.29-3.62-.39-3.91v-.1h5.85l6.9,18.34c.85,2.27,1.64,3.91,2.53,5.23v.1ZM116.67,105.84h-16.96v-.13c.1-.43.86-2.79.86-5v-13.41c0-2.2-.76-4.57-.86-5v-.13h16.86v5.59h-.13c-.56-.26-3.58-4.24-6.38-4.24h-4.57v9.6h1.97c2.76,0,5.75-1.48,6.25-1.61h.16v4.4h-.16c-.49-.13-3.48-1.61-6.25-1.61h-1.97v10.19h4.67c2.79,0,5.82-3.98,6.38-4.24h.13v5.59ZM138.56,88.68h-.16c-.49-.36-3.48-5.06-6.25-5.06h-1.38v17.09c0,2.2.76,4.57.85,5v.13h-6.64v-.13c.1-.43.85-2.79.85-5v-17.09h-1.41c-2.73,0-5.72,4.7-6.25,5.06h-.13v-6.51h20.51v6.51ZM160.14,88.68h-.16c-.49-.36-3.48-5.06-6.25-5.06h-1.38v17.09c0,2.2.76,4.57.85,5v.13h-6.64v-.13c.1-.43.85-2.79.85-5v-17.09h-1.41c-2.73,0-5.72,4.7-6.25,5.06h-.13v-6.51h20.51v6.51ZM168.38,82.31c-.07.43-.82,2.79-.82,5v13.41c0,2.2.76,4.57.82,5v.13h-6.61v-.13c.1-.43.85-2.79.85-5v-13.41c0-2.2-.76-4.57-.85-5v-.13h6.61v.13Z"/>
  </g>
</svg>