<?xml version="1.0" encoding="UTF-8"?>
<svg id="Layer_1" data-name="Layer 1" xmlns="http://www.w3.org/2000/svg" viewBox="0 0 177.77 101.26">
  <defs>
    <style>
      .cls-1 {
        fill: #3f3030;
      }
    </style>
  </defs>
  <path class="cls-1" d="M138.16,2.12c.08-.19.7.51.62.7-.08.19-.71-.5-.62-.7Z"/>
  <path class="cls-1" d="M140.1,5.82s.24-.13.27-.11c1.41.54-1.68.72-.27.11Z"/>
  <path class="cls-1" d="M146.32,24.52c.3-.03,1.19,1.15.7,1.63-.74.74-1.41-1.57-.7-1.63Z"/>
  <path class="cls-1" d="M146.99,26.81c-.06.03,1.11.38.99,1.52-.19,1.83-1.01-1.51-.99-1.52Z"/>
  <path class="cls-1" d="M152.56,42.54c-.42-.16-.06-.48.14-.38.42.16.06.46-.14.38Z"/>
  <path class="cls-1" d="M171.55,86.8c.24.02.53.8.75.98.5.37.1.27.35.82.1.19,1.47,1.49.95,2.18-.16.21-.9.4-1.44-.35-.34-.45-.06-1.22-.32-1.47-.24-.26-.32-.03-.66-.03.1,0-.67-.24-.67-.06-.06-.27.21-2.12,1.04-2.05Z"/>
  <path class="cls-1" d="M173.97,91.59c.16.11,1.41,1.99.16,1.86-.7-.06-1.63-2.93-.16-1.86Z"/>
  <path class="cls-1" d="M177.34,98.55c-.02.54-1.44,1.67-1.71,2.05-.13.18-.18.42-.26.66h-.56c.19-.29.43-.56.53-.56-.1-.14-.08-.42-.22-.53-.51-.48-.85.4-1.31-.06-.46-.45.21-.83.18-1.06-.03-.26-.9-.43-.35-.82.91-.64.48.48,1.03.85,0,0,.51.38.51.43.13,0,1.31-.5,1.36-.61,0-.13-.95-.7-1.03-.85-.54-.98.05-.98-.99-1.51-1.12-.58-.38-.83-1.49-1.94-.29-.3-.88,1.35-.66-.05.02-.11.14-.67.05-.67,1.15-.82.08.29,1.54.62.69.16,1.17-.45,1.6-.05.27.26.27,1.46.69,2.31.5,1.01,1.11,1.15,1.11,1.78Z"/>
  <path class="cls-1" d="M177.77,100.1v.46c-.29.14-.77.19-.82.1-.06-.16.21-.51.43-.51.06,0,.21-.14.27-.11.05.02.08.03.11.06Z"/>
  <g>
    <path class="cls-1" d="M52.86,21.24h-12.8v26.9h5.53c7.74,0,16.12-4.15,17.5-4.51h.46v12.34h-.46c-1.38-.37-9.76-4.51-17.5-4.51h-5.53v28.55h13.08c7.57,0,15.73-10.41,17.69-11.77v-35.11h-.09c-1.57-.74-10.04-11.88-17.87-11.88Z"/>
    <path class="cls-1" d="M85.84,53.11c.28,0,.55-.09.83-.09-.28,0-.55,0-.83.09Z"/>
    <path class="cls-1" d="M105.18,35.43c0-8.84-3.96-14.55-11.61-14.55h-8.93v28.55h8.66c7.65,0,11.88-4.79,11.88-14Z"/>
    <path class="cls-1" d="M173.25,100.34c-.37-.58-.96,0-1.3-.74-.03-.08-.27-.46-.24-.54s.54-.16.54-.24c-.05-.72-1.33-2.85-1.7-3.16-.19-.16-.64.37-.93.1-.06-.06-.37-.74-.37-.82.61-1.55,2.23.87,2.47,1.19.74,1.01.26,1.62,1.27,1.39.62-.14-1.73-2.77-1.86-2.77-.06-.75,1.36-.13.87-.98,0,.16-1.12-.21-1.07-.21-.19-.05-1.01.02-1.04-.19-.05-.34.59-.27.54-.24,1.6-.75-.22-.46-.59-1.36-.18-.42.37-.24.42-.51.03-.16-.37-.95-.48-1.09-.46-.62-1.39,1.92-1.04-.19.16-1.03-.74-.34-.75-.96,0-.16.79-.37.69-.62-.14-.45-.32-.62-.62-.71-.19-.05.08-.48.16-.38-.5-.66-1.22-.61-1.41-1.01-.1-.21.45-1.23.45-1.17-.18-.85-1.2-.42-.79-.91-.22.42,2.69-.66,2.74-.59.54.98-1.22,1.63-1.28,1.54.35.56,1.17.99,1.41.99.24.02.58-.4.82-.35.05.02.43.4.51.43.98.4,1.15-.5.74-1.3-.46-.85-.79-.38-1.03-.85-.13-.24-.05-1.27-.56-2.03-.5-.72-.37-.98-.72-1.63-.18-.34-.77-.43-1.01-.85-.18-.29-.11-1.06-.32-1.47-.67-1.25-1.14-2.2-1.55-3.54-.13-.4-.56-.48-.62-.7-.05-.11.29-.8.19-1.06-.03-.06-.82-.35-.91-.58-.05-.11.26-.51-.08-.93-.38-.48-.8-.4-1.03-.85-.24-.51-.16-1.65-.51-2.69-.19-.53-.54-.5-.75-.98-.42-.91-.06-1.54-.45-1.75.03.02-1.27-.1-1.33-.08-1.59.5-2.23,3.2-3.27,1.43-.34-.58.79-.42.87-1.01.06-.56-.8-.46-.37-.82.3-.26,1.52.53,2.07.38-.13,0,1.06-.87,1.03-.75.21-.66-1.39-2.32-1.47-2.61-.21-.9.53-1.01.35-1.44-.14-.34-.74-.58-1.14-1.14-.3-.38-.38-1.22-.72-1.63-.24-.29-.75-.26-.9-.58.06,0,.3-.71.3-.79.02-.19-.06-.85-.08-.93-.29-.83-1.71-1.71-1.89-2.1-.18-.38.1-1.09-.05-1.6-.64-2.2-2.61-5.24-3.33-7.63-.5-1.65-2.1-3.78-1.47-4.87.1-.16,1.3.19,1.09-.46-.45-1.39-1.25.18-1.71-.22-.03-.02-1.06-1.57-1.07-2.45-.02-.18.53-.05.66.03h.02c.99-.42-.34-2.56-.46-4.02-.16-1.73.9-1.22-.02-2.26-.14-.16-1.15,1.12-1.52.98-.13-.05-.27-.69-.35-.8-.37-.51-.3-.29-.35-.82-.06-.56-.66-.46-.75-.98-.08-.4.26-.85.06-1.33-.51-1.28-1.47-2.21-1.81-3.43-.13-.42.32-1.28.22-1.71-.34-1.44-1.46-2.15-2.1-3.3-.46-.85-.5-1.86-.91-2.84-.27-.64-.85-1.17-1.11-1.79-.3-.75-.32-1.39-.56-2.04-.11-.27-.95-1.07-.72-1.63.03-.06.54-.18.54-.22-.08-.56-.61-.46-.74-.98-.05-.18.32-.29.03-.66-.3-.4-.64.03-.9-.59-.24-.53.3-.93.06-1.31.02.02-.58.05-.66-.05-.95-.91.42-.9.45-1.17,0,.02-1.09-2.28-.95-2.18-.29-.18-.69.54-.95.08-.11-.22.58-1.03.35-1.44-.42-.79-1.01.22-1.3-.74-.02-.05.66.05.67.03.29-.24.27-.4.13-.53H0v101.26h173.28c.05-.34.11-.69-.03-.91ZM127.29,83.79h-16.58c-2.58-2.39-6.26-10.59-9.03-17.04-3.59-8.57-8.57-12.71-12.8-13.63h-4.24v16.3c0,6.17,2.12,12.8,2.3,14v.37H23.85v-.37c.28-1.2,2.39-7.83,2.39-14V31.84c0-6.17-2.12-12.8-2.39-14v-.37h74.43c12.99,0,21.74,6.91,21.74,17.22s-7.83,16.03-18.88,17.13c5.62,1.29,10.13,4.51,13.26,10.04,5.25,9.58,7.09,16.12,12.9,21.55v.37Z"/>
  </g>
</svg>