<?xml version="1.0" encoding="UTF-8"?>
<svg id="Layer_1" data-name="Layer 1" xmlns="http://www.w3.org/2000/svg" viewBox="0 0 129.62 83.1">
  <defs>
    <style>
      .cls-1 {
        fill: #3f3030;
      }
    </style>
  </defs>
  <path class="cls-1" d="M113.46,55.63c-3.93-6.93-9.58-10.97-16.62-12.58,13.85-1.39,23.66-8.31,23.66-21.47S109.54,0,93.26,0H0v.46c.35,1.5,3,9.81,3,17.54v47.09c0,7.73-2.65,16.04-3,17.54v.46h79.07v-.46c-.23-1.5-2.88-9.81-2.88-17.54v-20.43h1.5c.35-.11.69-.11,1.04-.11-.35,0-.69.11-1.04.11h3.81c5.31,1.16,11.54,6.35,16.04,17.08,3.46,8.08,8.08,18.35,11.31,21.35h20.78v-.46c-7.27-6.81-9.58-15-16.16-27.01ZM36.7,78.37h-16.39v-35.78h6.92c9.7,0,20.2,5.19,21.93,5.66h.58v-15.47h-.58c-1.73.46-12.24,5.66-21.93,5.66h-6.92V4.73h16.04c9.81,0,20.43,13.97,22.39,14.89h.12v44c-2.45,1.71-12.68,14.75-22.16,14.75ZM87.03,40.05h-10.85V4.27h11.19c9.58,0,14.54,7.15,14.54,18.24s-5.31,17.54-14.89,17.54Z"/>
</svg>