<?xml version="1.0" encoding="UTF-8"?>
<svg id="Layer_1" data-name="Layer 1" xmlns="http://www.w3.org/2000/svg" viewBox="0 0 222.76 126.88">
  <defs>
    <style>
      .cls-1 {
        fill: #3f3030;
      }
    </style>
  </defs>
  <path class="cls-1" d="M173.12,2.65c.1-.24.88.64.78.88-.1.24-.88-.62-.78-.88Z"/>
  <path class="cls-1" d="M175.55,7.29s.3-.16.34-.14c1.77.68-2.11.9-.34.14Z"/>
  <path class="cls-1" d="M183.35,30.72c.38-.04,1.49,1.45.88,2.05-.92.92-1.77-1.97-.88-2.05Z"/>
  <path class="cls-1" d="M184.19,33.59c-.08.04,1.39.48,1.24,1.91-.24,2.29-1.27-1.89-1.24-1.91Z"/>
  <path class="cls-1" d="M191.18,53.31c-.52-.2-.08-.6.18-.48.52.2.08.58-.18.48Z"/>
  <path class="cls-1" d="M214.97,108.77c.3.02.66,1,.94,1.22.62.46.12.34.44,1.02.12.24,1.85,1.87,1.18,2.73-.2.26-1.12.5-1.81-.44-.42-.56-.08-1.53-.4-1.85-.3-.32-.4-.04-.82-.04.12,0-.84-.3-.84-.08-.08-.34.26-2.65,1.31-2.57Z"/>
  <path class="cls-1" d="M218,114.77c.2.14,1.77,2.49.2,2.33-.88-.08-2.05-3.67-.2-2.33Z"/>
  <path class="cls-1" d="M222.22,123.49c-.02.68-1.81,2.09-2.15,2.57-.16.22-.22.52-.32.82h-.7c.24-.36.54-.7.66-.7-.12-.18-.1-.52-.28-.66-.64-.6-1.06.5-1.65-.08-.58-.56.26-1.04.22-1.33-.04-.32-1.12-.54-.44-1.02,1.14-.8.6.6,1.29,1.06,0,0,.64.48.64.54.16,0,1.65-.62,1.71-.76,0-.16-1.18-.88-1.28-1.06-.68-1.22.06-1.22-1.24-1.89-1.41-.72-.48-1.04-1.87-2.43-.36-.38-1.1,1.69-.82-.06.02-.14.18-.84.06-.84,1.45-1.02.1.36,1.93.78.86.2,1.47-.56,2.01-.06.34.32.34,1.83.86,2.89.62,1.27,1.39,1.45,1.39,2.23Z"/>
  <path class="cls-1" d="M222.76,125.44v.58c-.36.18-.96.24-1.02.12-.08-.2.26-.64.54-.64.08,0,.26-.18.34-.14.06.02.1.04.14.08Z"/>
  <g>
    <path class="cls-1" d="M116.6,108.51c-.14-.15-.32-.27-.52-.36s-.43-.13-.67-.13-.48.04-.68.13-.38.21-.52.36c-.14.15-.26.33-.34.54-.08.21-.13.43-.13.67s.04.45.13.66c.08.21.2.39.34.54.14.15.32.27.52.36s.43.13.68.13.46-.04.67-.13.38-.21.52-.36c.14-.15.26-.33.34-.54.08-.21.13-.43.13-.66s-.04-.47-.13-.67-.2-.39-.34-.54Z"/>
    <path class="cls-1" d="M123.48,108.48c-.15-.15-.33-.27-.54-.36s-.43-.13-.67-.13-.48.04-.68.13-.38.21-.52.36c-.14.15-.26.33-.34.54-.08.21-.12.43-.12.67s.04.47.12.68.19.4.34.55.32.28.52.37.43.14.68.14.48-.05.68-.14c.21-.09.38-.22.53-.37s.27-.34.35-.55.13-.44.13-.68-.04-.47-.13-.67c-.08-.21-.2-.39-.35-.54Z"/>
    <path class="cls-1" d="M130.49,108.25c-.14-.1-.3-.18-.47-.24s-.35-.08-.52-.08c-.26,0-.48.05-.68.14-.2.09-.36.22-.49.38-.13.16-.23.35-.29.56-.01.05-.01.1-.02.15h3c-.02-.19-.08-.37-.17-.52-.09-.15-.21-.28-.35-.39Z"/>
    <path class="cls-1" d="M46.8,71.8c-3.78,0-5.69,6.01-5.69,10.81s1.91,10.85,5.69,10.85,5.72-6.08,5.72-10.94-1.94-10.71-5.72-10.71Z"/>
    <path class="cls-1" d="M159.3,108.51c-.14-.16-.31-.28-.52-.38-.2-.1-.43-.14-.68-.14s-.48.05-.69.14c-.21.1-.39.22-.54.38-.15.16-.26.34-.35.55-.08.21-.13.44-.13.68s.04.45.13.66c.08.21.2.39.35.54.15.15.33.27.54.36s.44.13.69.13.48-.04.68-.13c.21-.09.38-.21.52-.36.14-.15.25-.33.33-.54s.12-.43.12-.66-.04-.47-.12-.68-.19-.4-.33-.55Z"/>
    <path class="cls-1" d="M27.79,77.19c0-3.16-1.41-5.19-4.14-5.19h-3.19v10.19h3.09c2.73,0,4.24-1.71,4.24-5Z"/>
    <path class="cls-1" d="M27.31,108.48c-.15-.15-.33-.27-.54-.36s-.44-.13-.69-.13-.47.04-.67.13c-.2.09-.37.21-.52.36-.14.15-.26.33-.34.54-.08.21-.12.43-.12.67s.04.47.12.68.19.4.34.55.32.28.52.37c.2.09.43.14.67.14s.48-.05.69-.14.39-.22.54-.37.26-.34.34-.55c.08-.21.12-.44.12-.68s-.04-.47-.12-.67c-.08-.21-.2-.39-.34-.54Z"/>
    <path class="cls-1" d="M92.26,108.51c-.14-.15-.32-.27-.52-.36-.2-.09-.43-.13-.67-.13s-.48.04-.68.13c-.21.09-.38.21-.52.36-.14.15-.26.33-.34.54-.08.21-.13.43-.13.67s.04.45.13.66c.08.21.2.39.34.54.14.15.32.27.52.36.2.09.43.13.68.13s.46-.04.67-.13c.21-.09.38-.21.52-.36.14-.15.26-.33.34-.54.08-.21.13-.43.13-.66s-.04-.47-.13-.67c-.08-.21-.2-.39-.34-.54Z"/>
    <path class="cls-1" d="M78.46,108.25c-.14-.1-.3-.18-.47-.24s-.35-.08-.52-.08c-.26,0-.48.05-.68.14-.2.09-.36.22-.49.38s-.22.35-.29.56c-.01.05-.01.1-.02.15h3c-.02-.19-.08-.37-.17-.52-.09-.15-.21-.28-.35-.39Z"/>
    <path class="cls-1" d="M40.73,108.48c-.15-.15-.33-.27-.54-.36s-.44-.13-.69-.13-.47.04-.67.13c-.2.09-.37.21-.52.36-.14.15-.26.33-.34.54-.08.21-.12.43-.12.67s.04.47.12.68c.08.21.19.4.34.55s.32.28.52.37c.2.09.43.14.67.14s.48-.05.69-.14.39-.22.54-.37c.15-.16.26-.34.34-.55s.12-.44.12-.68-.04-.47-.12-.67c-.08-.21-.19-.39-.34-.54Z"/>
    <path class="cls-1" d="M87.04,63.56c3.78,0,5.72-6.08,5.72-10.94s-1.94-10.71-5.72-10.71-5.69,6.01-5.69,10.81,1.91,10.85,5.69,10.85Z"/>
    <path class="cls-1" d="M217.1,125.74c-.46-.72-1.2,0-1.63-.92-.04-.1-.34-.58-.3-.68.04-.1.68-.2.68-.3-.06-.9-1.67-3.57-2.13-3.96-.24-.2-.8.46-1.16.12-.08-.08-.46-.92-.46-1.02.76-1.95,2.79,1.08,3.09,1.49.92,1.27.32,2.03,1.59,1.75.78-.18-2.17-3.47-2.33-3.47-.08-.94,1.71-.16,1.08-1.23,0,.2-1.41-.26-1.35-.26-.24-.06-1.26.02-1.3-.24-.06-.42.74-.34.68-.3,2.01-.94-.28-.58-.74-1.71-.22-.52.46-.3.52-.64.04-.2-.46-1.18-.6-1.37-.58-.78-1.75,2.41-1.3-.24.2-1.29-.92-.42-.94-1.2,0-.2.98-.46.86-.78-.18-.56-.4-.78-.78-.88-.24-.06.1-.6.2-.48-.62-.82-1.53-.76-1.77-1.26-.12-.26.56-1.55.56-1.47-.22-1.06-1.51-.52-.98-1.14-.28.52,3.37-.82,3.43-.74.68,1.22-1.53,2.05-1.61,1.93.44.7,1.47,1.24,1.77,1.24.3.02.72-.5,1.02-.44.06.02.54.5.64.54,1.22.5,1.45-.62.92-1.63-.58-1.06-.98-.48-1.28-1.06-.16-.3-.06-1.59-.7-2.55-.62-.9-.46-1.22-.9-2.05-.22-.42-.96-.54-1.27-1.06-.22-.36-.14-1.33-.4-1.85-.84-1.57-1.43-2.75-1.95-4.44-.16-.5-.7-.6-.78-.88-.06-.14.36-1,.24-1.33-.04-.08-1.02-.44-1.14-.72-.06-.14.32-.64-.1-1.16-.48-.6-1-.5-1.29-1.06-.3-.64-.2-2.07-.64-3.37-.24-.66-.68-.62-.94-1.22-.52-1.14-.08-1.93-.56-2.19.04.02-1.59-.12-1.67-.1-1.99.62-2.79,4.02-4.1,1.79-.42-.72.98-.52,1.08-1.27.08-.7-1-.58-.46-1.02.38-.32,1.91.66,2.59.48-.16,0,1.33-1.08,1.29-.94.26-.82-1.75-2.91-1.85-3.27-.26-1.12.66-1.27.44-1.81-.18-.42-.92-.72-1.43-1.43-.38-.48-.48-1.53-.9-2.05-.3-.36-.94-.32-1.12-.72.08,0,.38-.88.38-.98.02-.24-.08-1.06-.1-1.16-.36-1.04-2.15-2.15-2.37-2.63-.22-.48.12-1.37-.06-2.01-.8-2.75-3.27-6.57-4.18-9.56-.62-2.07-2.63-4.74-1.85-6.1.12-.2,1.63.24,1.37-.58-.56-1.75-1.57.22-2.15-.28-.04-.02-1.33-1.97-1.35-3.07-.02-.22.66-.06.82.04h.02c1.24-.52-.42-3.21-.58-5.04-.2-2.17,1.12-1.53-.02-2.83-.18-.2-1.45,1.41-1.91,1.22-.16-.06-.34-.86-.44-1-.46-.64-.38-.36-.44-1.02-.08-.7-.82-.58-.94-1.22-.1-.5.32-1.06.08-1.67-.64-1.61-1.85-2.77-2.27-4.3-.16-.52.4-1.61.28-2.15-.42-1.81-1.83-2.69-2.63-4.14-.58-1.06-.62-2.33-1.14-3.55-.34-.8-1.06-1.47-1.39-2.25-.38-.94-.4-1.75-.7-2.55-.14-.34-1.18-1.35-.9-2.05.04-.08.68-.22.68-.28-.1-.7-.76-.58-.92-1.22-.06-.22.4-.36.04-.82-.38-.5-.8.04-1.12-.74-.3-.66.38-1.16.08-1.65.02.02-.72.06-.82-.06-1.18-1.14.52-1.12.56-1.47,0,.02-1.37-2.85-1.18-2.73-.36-.22-.86.68-1.18.1-.14-.28.72-1.29.44-1.81-.52-.98-1.26.28-1.63-.92-.02-.06.82.06.84.04.36-.3.34-.5.16-.66H0v126.88h217.14c.06-.42.14-.86-.04-1.14ZM118.1,70.78h20.51v6.51h-.17c-.49-.36-3.48-5.06-6.24-5.06h-1.38v17.09c0,2.2.76,4.57.85,5v.13h-6.64v-.13c.1-.43.85-2.79.85-5v-17.09h-1.41c-2.73,0-5.72,4.7-6.24,5.06h-.13v-6.51ZM87.04,40.56c6.21,0,11.24,4.9,11.24,12.1s-5.03,12.26-11.24,12.26-11.21-5.03-11.21-12.26,4.96-12.1,11.21-12.1ZM86.71,84.46c-4.08-1.45-7.1-3.45-7.1-7s3.09-7,8.84-7c3.06,0,6.15,1.05,8.12,1.87v5.23h-.16c-2.2-2.17-5.52-5.62-8.64-5.62-2.33,0-3.75,1.48-3.75,3.12,0,2.43,3.12,3.65,6.8,5.06,5.29,2.14,6.74,5,6.74,7.66,0,4.8-4.27,7.07-8.88,7.07-2.46,0-5.52-.76-8.74-2.1v-5.39h.23c2.37,2.43,5.55,5.98,9.01,5.98,2.1,0,3.91-1.25,3.91-3.52,0-2.76-2.76-4.04-6.38-5.36ZM64.28,42.3c-3.12,0-6.57,3.29-7.13,3.55h-.16v-4.96h18.41l-12.79,22.25h4.77c3.12,0,6.54-3.32,7.1-3.58h.16v5h-18.5l12.82-22.25h-4.67ZM58.04,82.55c0,7.23-5.03,12.26-11.24,12.26s-11.21-5.03-11.21-12.26,4.96-12.1,11.21-12.1,11.24,4.9,11.24,12.1ZM33.75,64.39c.16-.62,1.64-4.08,1.64-7.26v-10.68c0-2.37-1.15-4.86-1.28-5.42v-.13h5.95l11.73,17.32v-9.89c0-3.22-1.48-6.64-1.64-7.26v-.16h4.83v.16c-.17.62-1.68,4.04-1.68,7.26v16.24h-3.12l-13.28-19.42v12c0,3.19,1.51,6.64,1.68,7.26v.16h-4.83v-.16ZM14.68,64.42c.1-.43.85-2.79.85-5v-13.41c0-2.2-.76-4.57-.85-5v-.13h16.86v5.59h-.13c-.56-.26-3.58-4.24-6.38-4.24h-4.57v9.6h1.97c2.76,0,5.75-1.48,6.25-1.61h.16v4.4h-.16c-.49-.13-3.48-1.61-6.25-1.61h-1.97v10.19h4.67c2.79,0,5.82-3.98,6.38-4.24h.13v5.59H14.68v-.13ZM17.1,112.54h-1.46v-7.99h1.46v7.99ZM22.37,108.05h-1.76v2.4c0,.38.11.64.33.78.22.14.5.21.84.21.07,0,.15,0,.22-.01.08,0,.15-.02.21-.04v1.21c-.1.02-.22.04-.35.06-.13.02-.26.02-.37.02-.34,0-.64-.04-.92-.13-.28-.08-.51-.21-.7-.39-.19-.18-.35-.4-.46-.67s-.17-.6-.17-.98v-2.46h-1v-1.16h1.02v-1.57l1.35-.26v1.83h1.76v1.16ZM29.14,112.54h-1.24l-.11-.71c-.2.25-.46.45-.77.6s-.7.23-1.17.23c-.39,0-.76-.07-1.1-.22-.34-.15-.64-.35-.89-.61-.25-.26-.44-.57-.58-.94-.14-.37-.21-.76-.21-1.2s.07-.82.21-1.17.34-.67.58-.93.54-.46.89-.6c.34-.14.71-.21,1.1-.21.47,0,.86.07,1.17.22s.57.35.77.61l.08-.71h1.26v5.65ZM32.19,112.54h-1.39v-8.29h1.39v8.29ZM35.24,112.54h-1.39v-5.65h1.39v5.65ZM35.32,105.36c-.04.1-.1.19-.17.27-.08.08-.17.13-.27.17s-.21.06-.33.06-.23-.02-.33-.06-.19-.1-.26-.17c-.07-.08-.13-.16-.17-.27-.04-.1-.07-.21-.07-.33,0-.11.02-.22.07-.32.04-.1.1-.19.17-.26s.16-.13.26-.17c.1-.04.21-.07.33-.07s.23.02.33.07c.1.04.19.1.27.17.08.07.13.16.17.26.04.1.06.21.06.32,0,.12-.02.23-.06.33ZM35.68,94.45h-5.92c-.92-.85-2.23-3.78-3.22-6.08-1.28-3.06-3.06-4.54-4.57-4.86h-1.51v5.82c0,2.2.76,4.57.82,5v.13h-6.61v-.13c.1-.43.85-2.79.85-5v-13.41c0-2.2-.76-4.57-.85-5v-.13h10.65c4.63,0,7.76,2.46,7.76,6.15s-2.79,5.72-6.74,6.11c2,.46,3.62,1.61,4.73,3.58,1.87,3.42,2.53,5.75,4.6,7.69v.13ZM42.56,112.54h-1.24l-.11-.71c-.2.25-.46.45-.77.6-.31.15-.7.23-1.17.23-.39,0-.76-.07-1.1-.22s-.64-.35-.89-.61c-.25-.26-.44-.57-.58-.94-.14-.37-.21-.76-.21-1.2s.07-.82.21-1.17.33-.67.58-.93.54-.46.89-.6c.34-.14.71-.21,1.1-.21.47,0,.86.07,1.17.22.31.15.57.35.77.61l.08-.71h1.27v5.65ZM49.68,112.54h-1.37v-3.13c0-.44-.11-.78-.34-1.01-.23-.23-.54-.35-.93-.35-.19,0-.37.03-.54.09-.16.06-.31.15-.45.27-.13.12-.24.26-.31.43-.07.17-.11.36-.11.57l-.02,3.14h-1.39v-5.65h1.21l.11.69c.06-.08.13-.17.23-.26.1-.1.23-.19.38-.27s.33-.15.52-.2c.2-.05.41-.08.64-.08.38,0,.71.06,1.01.17.29.11.54.27.74.48.2.21.35.45.46.74s.16.61.16.95v3.43ZM59.5,111.26c-.16.31-.37.57-.64.77-.27.21-.6.36-.97.47-.37.11-.78.16-1.21.16-.47,0-.89-.06-1.27-.18-.38-.12-.71-.29-.98-.52-.27-.23-.48-.5-.64-.81-.16-.32-.25-.67-.27-1.07h1.53c0,.2.06.38.15.54.09.16.21.3.36.41.15.11.32.19.51.25.19.05.4.08.63.08.2,0,.39-.02.58-.07.19-.04.35-.11.49-.21.14-.1.25-.21.34-.35.08-.14.13-.3.13-.49,0-.22-.06-.39-.19-.52-.13-.13-.29-.25-.47-.34-.19-.09-.38-.16-.6-.21-.21-.05-.41-.1-.6-.14-.31-.07-.63-.16-.96-.25-.33-.1-.62-.23-.88-.39-.26-.16-.47-.38-.64-.64-.17-.27-.25-.61-.25-1.02,0-.35.07-.67.21-.96.14-.28.33-.52.59-.72.26-.19.57-.34.93-.45.36-.1.77-.16,1.22-.16s.84.06,1.2.17c.36.11.66.27.9.48s.44.46.57.75c.14.29.21.62.23.99h-1.51c0-.19-.05-.35-.13-.49-.08-.14-.18-.26-.31-.35-.13-.1-.29-.17-.46-.22-.17-.05-.36-.07-.55-.07s-.36.02-.53.06-.32.1-.45.18c-.13.08-.24.18-.31.31-.08.12-.11.27-.11.44,0,.2.06.37.19.49.12.13.28.23.46.32.18.08.38.15.59.19s.39.09.55.14c.33.07.66.16.99.26.33.1.63.23.9.4.27.17.49.39.66.66s.25.62.25,1.05c0,.39-.08.75-.23,1.05ZM66.78,84.46c-4.08-1.45-7.1-3.45-7.1-7s3.09-7,8.84-7c3.06,0,6.15,1.05,8.12,1.87v5.23h-.16c-2.2-2.17-5.52-5.62-8.64-5.62-2.33,0-3.75,1.48-3.75,3.12,0,2.43,3.12,3.65,6.8,5.06,5.29,2.14,6.74,5,6.74,7.66,0,4.8-4.27,7.07-8.87,7.07-2.46,0-5.52-.76-8.74-2.1v-5.39h.23c2.37,2.43,5.55,5.98,9.01,5.98,2.1,0,3.91-1.25,3.91-3.52,0-2.76-2.76-4.04-6.38-5.36ZM64.45,108.05h-1.76v2.4c0,.38.11.64.33.78.22.14.5.21.84.21.07,0,.15,0,.22-.01.08,0,.15-.02.21-.04v1.21c-.1.02-.22.04-.36.06s-.25.02-.37.02c-.34,0-.64-.04-.92-.13-.28-.08-.51-.21-.71-.39-.19-.18-.34-.4-.46-.67-.11-.27-.17-.6-.17-.98v-2.46h-1v-1.16h1.02v-1.57l1.35-.26v1.83h1.76v1.16ZM68.37,113.27c-.11.27-.24.51-.38.72s-.3.4-.49.55c-.19.15-.4.27-.64.36-.25.08-.53.13-.86.13-.24,0-.44-.02-.59-.07-.15-.05-.27-.09-.36-.13v-1.12c.1.04.22.07.38.1.16.02.31.04.46.04.35,0,.62-.08.8-.25s.33-.4.44-.72l.1-.27-2.39-5.71h1.49l1.6,4.23,1.6-4.23h1.49l-2.66,6.37ZM73.31,112.54h-1.39v-8.29h1.39v8.29ZM80.35,109.86c0,.07-.01.14-.03.22h-4.35c.02.11.02.23.05.33.07.22.17.4.31.56.14.16.3.28.51.37.2.09.44.13.71.13.3,0,.57-.06.79-.18.22-.12.4-.3.54-.53h1.41c-.19.59-.54,1.06-1.04,1.4s-1.1.51-1.79.51c-.47,0-.88-.08-1.24-.25s-.66-.38-.9-.66c-.24-.27-.42-.59-.55-.94-.12-.35-.19-.72-.19-1.1s.06-.75.19-1.11c.13-.35.32-.67.56-.94.24-.27.55-.49.91-.66s.78-.25,1.25-.25c.43,0,.83.07,1.18.21s.66.33.91.58c.25.25.45.55.58.9s.21.73.21,1.15c0,.09,0,.17,0,.24ZM87.62,105.37c-.07-.02-.15-.03-.23-.04-.08-.01-.16-.02-.23-.02-.34,0-.61.08-.82.24-.21.16-.31.43-.31.82v.52h1.58v1.17h-1.57v4.48s-1.38,0-1.38,0l.02-4.48h-1.07v-1.17h1.07v-.54c0-.75.2-1.31.59-1.69.39-.38.93-.57,1.6-.57.13,0,.26,0,.39.02.13.02.25.04.36.07v1.18ZM93.86,110.89c-.15.36-.36.67-.63.93-.27.26-.59.47-.96.62s-.77.22-1.2.22-.85-.07-1.22-.22c-.37-.15-.69-.36-.96-.62-.27-.27-.48-.58-.63-.93-.15-.36-.23-.74-.23-1.16s.08-.81.23-1.17.36-.67.63-.93c.27-.26.59-.47.96-.62.37-.15.77-.23,1.22-.23s.83.08,1.2.23c.37.15.69.36.96.62.27.26.48.57.63.93.15.36.23.75.23,1.17s-.08.81-.23,1.16ZM98.85,108.07s-.07-.02-.13-.02c-.06,0-.12-.01-.17-.01-.27,0-.52.04-.75.13-.22.09-.42.22-.58.38-.16.16-.29.36-.37.59-.09.23-.13.49-.13.78v2.63h-1.39v-5.65h1.22l.12,1.01c.14-.35.37-.63.67-.83.31-.2.68-.3,1.12-.3.08,0,.15,0,.22.01.07,0,.12.02.16.04v1.25ZM99.76,94.32c.1-.43.85-2.79.85-5v-13.41c0-2.2-.76-4.57-.85-5v-.13h16.86v5.59h-.13c-.56-.26-3.58-4.24-6.38-4.24h-4.57v9.6h1.97c2.76,0,5.75-1.48,6.25-1.61h.16v4.4h-.16c-.49-.13-3.48-1.61-6.25-1.61h-1.97v10.19h4.67c2.79,0,5.82-3.98,6.38-4.24h.13v5.59h-16.96v-.13ZM111.03,112.54h-1.45v-5.62l-2.71,3.18h-.25l-2.67-3.17v5.62h-1.45v-7.99h1.27l3,3.67,3-3.67h1.27v7.99ZM118.2,110.89c-.15.36-.36.67-.63.93-.27.26-.59.47-.96.62-.37.15-.77.22-1.21.22s-.85-.07-1.22-.22-.69-.36-.96-.62c-.27-.27-.48-.58-.63-.93-.15-.36-.23-.74-.23-1.16s.08-.81.23-1.17c.15-.36.36-.67.63-.93.27-.26.59-.47.96-.62.37-.15.78-.23,1.22-.23s.83.08,1.21.23c.37.15.69.36.96.62.27.26.48.57.63.93s.23.75.23,1.17-.08.81-.23,1.16ZM125.34,112.54h-1.31l-.05-.72c-.2.25-.46.45-.78.61-.32.16-.7.23-1.16.23-.4,0-.77-.07-1.11-.22-.34-.15-.63-.35-.88-.61-.25-.26-.44-.57-.58-.94-.14-.37-.21-.76-.21-1.19s.07-.83.21-1.19.33-.67.58-.93.54-.46.88-.6c.34-.14.71-.21,1.11-.21.47,0,.85.08,1.16.23.31.16.56.36.76.61v-3.36h1.39v8.29ZM132.38,109.86c0,.07-.01.14-.03.22h-4.35c.02.11.02.23.05.33.07.22.17.4.31.56.14.16.31.28.51.37.2.09.44.13.71.13.31,0,.57-.06.79-.18.22-.12.4-.3.54-.53h1.41c-.19.59-.54,1.06-1.04,1.4-.5.34-1.1.51-1.79.51-.47,0-.88-.08-1.24-.25s-.66-.38-.9-.66c-.24-.27-.42-.59-.55-.94-.12-.35-.19-.72-.19-1.1s.06-.75.19-1.11c.13-.35.32-.67.56-.94s.55-.49.91-.66c.36-.16.78-.25,1.25-.25.43,0,.83.07,1.18.21.35.14.66.33.91.58.25.25.45.55.58.9s.21.73.21,1.15c0,.09,0,.17,0,.24ZM137.16,108.07s-.07-.02-.13-.02c-.06,0-.12-.01-.17-.01-.27,0-.52.04-.75.13-.22.09-.42.22-.58.38-.16.16-.29.36-.37.59-.09.23-.13.49-.13.78v2.63h-1.39v-5.65h1.22l.12,1.01c.14-.35.37-.63.67-.83.31-.2.68-.3,1.12-.3.08,0,.15,0,.22.01.07,0,.12.02.16.04v1.25ZM143.74,112.54h-1.37v-3.13c0-.44-.12-.78-.34-1.01-.23-.23-.54-.35-.93-.35-.19,0-.37.03-.54.09-.17.06-.31.15-.45.27-.13.12-.24.26-.31.43-.07.17-.11.36-.11.57l-.02,3.14h-1.39v-5.65h1.21l.11.69c.06-.08.13-.17.24-.26.1-.1.23-.19.38-.27.15-.08.33-.15.52-.2.2-.05.41-.08.64-.08.38,0,.71.06,1.01.17s.54.27.74.48c.2.21.35.45.46.74.1.29.16.61.16.95v3.43ZM146.05,72.23c-2.73,0-5.72,4.7-6.24,5.06h-.13v-6.51h20.51v6.51h-.17c-.49-.36-3.48-5.06-6.24-5.06h-1.38v17.09c0,2.2.76,4.57.85,5v.13h-6.64v-.13c.1-.43.85-2.79.85-5v-17.09h-1.41ZM153.55,111.26c-.16.31-.37.57-.64.77-.27.21-.6.36-.97.47s-.78.16-1.21.16c-.47,0-.89-.06-1.27-.18-.38-.12-.71-.29-.98-.52-.27-.23-.48-.5-.64-.81-.16-.32-.25-.67-.26-1.07h1.53c0,.2.06.38.15.54.09.16.21.3.36.41s.32.19.51.25c.19.05.4.08.63.08.2,0,.39-.02.58-.07.18-.04.35-.11.49-.21.14-.1.25-.21.34-.35s.13-.3.13-.49c0-.22-.06-.39-.19-.52-.13-.13-.29-.25-.47-.34s-.38-.16-.6-.21c-.21-.05-.41-.1-.6-.14-.31-.07-.63-.16-.96-.25-.33-.1-.62-.23-.88-.39-.26-.16-.47-.38-.64-.64-.16-.27-.25-.61-.25-1.02,0-.35.07-.67.2-.96.14-.28.33-.52.59-.72.26-.19.57-.34.93-.45.36-.1.77-.16,1.22-.16s.84.06,1.2.17c.36.11.66.27.9.48.24.21.44.46.57.75.14.29.21.62.23.99h-1.51c0-.19-.05-.35-.13-.49-.08-.14-.18-.26-.31-.35-.13-.1-.29-.17-.46-.22-.17-.05-.36-.07-.55-.07s-.36.02-.53.06c-.17.04-.32.1-.45.18s-.24.18-.31.31-.11.27-.11.44c0,.2.06.37.19.49.12.13.28.23.46.32s.38.15.59.19c.21.04.39.09.55.14.33.07.66.16.99.26.33.1.63.23.9.4.27.17.49.39.66.66.17.27.25.62.25,1.05,0,.39-.08.75-.24,1.05ZM160.9,110.92c-.14.36-.34.67-.58.93-.25.26-.54.46-.88.6-.34.14-.71.21-1.11.21-.47,0-.85-.07-1.16-.22-.31-.15-.56-.35-.75-.6v3.05h-1.39v-8h1.24l.1.77c.18-.27.42-.49.74-.65.32-.16.71-.24,1.19-.24.41,0,.79.07,1.13.22.35.15.64.35.89.61.25.26.44.57.58.94.14.37.21.76.21,1.2s-.07.82-.21,1.17ZM168.03,112.54h-1.24l-.11-.71c-.2.25-.46.45-.77.6-.31.15-.7.23-1.17.23-.39,0-.76-.07-1.1-.22s-.64-.35-.89-.61c-.25-.26-.44-.57-.58-.94-.14-.37-.21-.76-.21-1.2s.07-.82.21-1.17.33-.67.58-.93.54-.46.89-.6c.34-.14.71-.21,1.1-.21.47,0,.86.07,1.17.22.31.15.57.35.77.61l.08-.71h1.27v5.65ZM168.43,70.91c-.07.43-.82,2.79-.82,5v13.41c0,2.2.76,4.57.82,5v.13h-6.61v-.13c.1-.43.85-2.79.85-5v-13.41c0-2.2-.76-4.57-.85-5v-.13h6.61v.13ZM174.74,111.34c-.17.28-.38.52-.63.71-.25.19-.53.34-.85.45s-.65.16-1.01.16c-.43,0-.82-.07-1.19-.22-.37-.15-.68-.36-.95-.62-.26-.27-.47-.58-.63-.93-.15-.36-.23-.75-.23-1.17s.08-.81.23-1.16c.15-.36.36-.67.63-.93.27-.26.58-.47.95-.62.37-.15.76-.22,1.19-.22.33,0,.65.05.97.16.32.1.6.25.86.45s.48.42.66.69.3.57.34.91h-1.36c-.12-.3-.31-.53-.57-.71-.26-.18-.56-.27-.9-.27-.23,0-.45.04-.64.13-.2.09-.37.21-.51.37s-.26.34-.34.55c-.08.21-.13.43-.13.67s.04.47.13.67c.08.21.2.39.34.54.14.15.32.27.52.36.2.09.41.13.64.13.34,0,.63-.09.89-.27.26-.18.45-.43.58-.75h1.39c-.07.34-.2.65-.37.93ZM181.67,109.86c0,.07-.01.14-.03.22h-4.35c.02.11.02.23.05.33.07.22.17.4.31.56.14.16.31.28.51.37.2.09.44.13.71.13.31,0,.57-.06.79-.18.22-.12.4-.3.54-.53h1.41c-.19.59-.54,1.06-1.04,1.4-.5.34-1.1.51-1.79.51-.47,0-.88-.08-1.24-.25s-.66-.38-.9-.66c-.24-.27-.42-.59-.55-.94-.12-.35-.19-.72-.19-1.1s.06-.75.19-1.11c.13-.35.32-.67.56-.94s.55-.49.91-.66c.36-.16.78-.25,1.25-.25.43,0,.83.07,1.18.21.35.14.66.33.91.58.25.25.45.55.58.9s.21.73.21,1.15c0,.09,0,.17,0,.24ZM187.1,111.61c-.15.24-.33.44-.55.6s-.48.28-.78.36-.59.11-.9.11-.6-.04-.88-.13c-.28-.08-.53-.21-.75-.39-.22-.17-.4-.39-.53-.64-.13-.26-.2-.56-.2-.9h1.29c.02.16.06.3.13.42.07.12.16.21.27.29.11.08.23.13.36.17.13.04.27.05.42.05.13,0,.25-.01.37-.04.12-.03.22-.07.31-.12.09-.05.16-.12.22-.2.06-.08.08-.17.08-.28,0-.12-.03-.22-.1-.3-.06-.08-.16-.15-.28-.2-.12-.05-.26-.1-.43-.13s-.35-.07-.55-.1c-.22-.05-.44-.1-.68-.16-.24-.06-.45-.14-.64-.26-.19-.12-.35-.27-.48-.46-.12-.19-.19-.43-.19-.73,0-.31.07-.58.2-.81.13-.23.31-.41.52-.55.22-.15.46-.25.74-.32.27-.07.55-.1.83-.1s.57.04.84.12c.27.08.51.2.72.36.21.16.38.35.52.59.14.24.21.52.22.84h-1.29c-.02-.13-.06-.24-.12-.34-.06-.1-.15-.18-.25-.25-.1-.07-.21-.12-.33-.16s-.25-.05-.39-.05c-.11,0-.22.01-.33.04-.11.03-.21.07-.29.11s-.16.11-.21.18c-.06.07-.08.16-.08.25,0,.08.02.15.07.21.04.06.11.11.2.16.09.05.2.09.34.13.14.04.31.08.5.12.26.05.52.1.79.16.27.06.51.14.73.26.22.12.4.27.55.47.14.2.22.46.22.8,0,.31-.07.59-.22.83Z"/>
    <path class="cls-1" d="M166.19,108.48c-.15-.15-.33-.27-.54-.36s-.44-.13-.69-.13-.47.04-.67.13c-.2.09-.37.21-.52.36-.14.15-.26.33-.34.54-.08.21-.12.43-.12.67s.04.47.12.68c.08.21.19.4.34.55s.32.28.52.37c.2.09.43.14.67.14s.48-.05.69-.14.39-.22.54-.37c.15-.16.26-.34.34-.55s.12-.44.12-.68-.04-.47-.12-.67c-.08-.21-.19-.39-.34-.54Z"/>
    <path class="cls-1" d="M179.78,108.25c-.14-.1-.3-.18-.47-.24s-.35-.08-.52-.08c-.26,0-.48.05-.68.14-.2.09-.36.22-.49.38-.13.16-.23.35-.29.56-.01.05-.01.1-.02.15h3c-.02-.19-.08-.37-.17-.52-.09-.15-.21-.28-.35-.39Z"/>
  </g>
</svg>