<?xml version="1.0" encoding="UTF-8"?>
<svg id="Layer_1" data-name="Layer 1" xmlns="http://www.w3.org/2000/svg" viewBox="0 0 222.76 126.88">
  <defs>
    <style>
      .cls-1 {
        fill: #3f3030;
      }
    </style>
  </defs>
  <path class="cls-1" d="M173.12,2.65c.1-.24.88.64.78.88-.1.24-.88-.62-.78-.88Z"/>
  <path class="cls-1" d="M175.55,7.29s.3-.16.34-.14c1.77.68-2.11.9-.34.14Z"/>
  <path class="cls-1" d="M183.35,30.72c.38-.04,1.49,1.45.88,2.05-.92.92-1.77-1.97-.88-2.05Z"/>
  <path class="cls-1" d="M184.19,33.59c-.08.04,1.39.48,1.24,1.91-.24,2.29-1.27-1.89-1.24-1.91Z"/>
  <path class="cls-1" d="M191.18,53.31c-.52-.2-.08-.6.18-.48.52.2.08.58-.18.48Z"/>
  <path class="cls-1" d="M214.97,108.77c.3.02.66,1,.94,1.22.62.46.12.34.44,1.02.12.24,1.85,1.87,1.18,2.73-.2.26-1.12.5-1.81-.44-.42-.56-.08-1.53-.4-1.85-.3-.32-.4-.04-.82-.04.12,0-.84-.3-.84-.08-.08-.34.26-2.65,1.31-2.57Z"/>
  <path class="cls-1" d="M218,114.77c.2.14,1.77,2.49.2,2.33-.88-.08-2.05-3.67-.2-2.33Z"/>
  <path class="cls-1" d="M222.22,123.49c-.02.68-1.81,2.09-2.15,2.57-.16.22-.22.52-.32.82h-.7c.24-.36.54-.7.66-.7-.12-.18-.1-.52-.28-.66-.64-.6-1.06.5-1.65-.08-.58-.56.26-1.04.22-1.33-.04-.32-1.12-.54-.44-1.02,1.14-.8.6.6,1.29,1.06,0,0,.64.48.64.54.16,0,1.65-.62,1.71-.76,0-.16-1.18-.88-1.28-1.06-.68-1.22.06-1.22-1.24-1.89-1.41-.72-.48-1.04-1.87-2.43-.36-.38-1.1,1.69-.82-.06.02-.14.18-.84.06-.84,1.45-1.02.1.36,1.93.78.86.2,1.47-.56,2.01-.06.34.32.34,1.83.86,2.89.62,1.27,1.39,1.45,1.39,2.23Z"/>
  <path class="cls-1" d="M222.76,125.44v.58c-.36.18-.96.24-1.02.12-.08-.2.26-.64.54-.64.08,0,.26-.18.34-.14.06.02.1.04.14.08Z"/>
  <g>
    <path class="cls-1" d="M217.1,125.74c-.46-.72-1.2,0-1.63-.92-.04-.1-.34-.58-.3-.68.04-.1.68-.2.68-.3-.06-.9-1.67-3.57-2.13-3.96-.24-.2-.8.46-1.16.12-.08-.08-.46-.92-.46-1.02.76-1.95,2.79,1.08,3.09,1.49.92,1.27.32,2.03,1.59,1.75.78-.18-2.17-3.47-2.33-3.47-.08-.94,1.71-.16,1.08-1.23,0,.2-1.41-.26-1.35-.26-.24-.06-1.26.02-1.3-.24-.06-.42.74-.34.68-.3,2.01-.94-.28-.58-.74-1.71-.22-.52.46-.3.52-.64.04-.2-.46-1.18-.6-1.37-.58-.78-1.75,2.41-1.3-.24.2-1.29-.92-.42-.94-1.2,0-.2.98-.46.86-.78-.18-.56-.4-.78-.78-.88-.24-.06.1-.6.2-.48-.62-.82-1.53-.76-1.77-1.26-.12-.26.56-1.55.56-1.47-.22-1.06-1.51-.52-.98-1.14-.28.52,3.37-.82,3.43-.74.68,1.22-1.53,2.05-1.61,1.93.44.7,1.47,1.24,1.77,1.24.3.02.72-.5,1.02-.44.06.02.54.5.64.54,1.22.5,1.45-.62.92-1.63-.58-1.06-.98-.48-1.28-1.06-.16-.3-.06-1.59-.7-2.55-.62-.9-.46-1.22-.9-2.05-.22-.42-.96-.54-1.27-1.06-.22-.36-.14-1.33-.4-1.85-.84-1.57-1.43-2.75-1.95-4.44-.16-.5-.7-.6-.78-.88-.06-.14.36-1,.24-1.33-.04-.08-1.02-.44-1.14-.72-.06-.14.32-.64-.1-1.16-.48-.6-1-.5-1.29-1.06-.3-.64-.2-2.07-.64-3.37-.24-.66-.68-.62-.94-1.22-.52-1.14-.08-1.93-.56-2.19.04.02-1.59-.12-1.67-.1-1.99.62-2.79,4.02-4.1,1.79-.42-.72.98-.52,1.08-1.27.08-.7-1-.58-.46-1.02.38-.32,1.91.66,2.59.48-.16,0,1.33-1.08,1.29-.94.26-.82-1.75-2.91-1.85-3.27-.26-1.12.66-1.27.44-1.81-.18-.42-.92-.72-1.43-1.43-.38-.48-.48-1.53-.9-2.05-.3-.36-.94-.32-1.12-.72.08,0,.38-.88.38-.98.02-.24-.08-1.06-.1-1.16-.36-1.04-2.15-2.15-2.37-2.63-.22-.48.12-1.37-.06-2.01-.8-2.75-3.27-6.57-4.18-9.56-.62-2.07-2.63-4.74-1.85-6.1.12-.2,1.63.24,1.37-.58-.56-1.75-1.57.22-2.15-.28-.04-.02-1.33-1.97-1.35-3.07-.02-.22.66-.06.82.04h.02c1.24-.52-.42-3.21-.58-5.04-.2-2.17,1.12-1.53-.02-2.83-.18-.2-1.45,1.41-1.91,1.22-.16-.06-.34-.86-.44-1-.46-.64-.38-.36-.44-1.02-.08-.7-.82-.58-.94-1.22-.1-.5.32-1.06.08-1.67-.64-1.61-1.85-2.77-2.27-4.3-.16-.52.4-1.61.28-2.15-.42-1.81-1.83-2.69-2.63-4.14-.58-1.06-.62-2.33-1.14-3.55-.34-.8-1.06-1.47-1.39-2.25-.38-.94-.4-1.75-.7-2.55-.14-.34-1.18-1.35-.9-2.05.04-.08.68-.22.68-.28-.1-.7-.76-.58-.92-1.22-.06-.22.4-.36.04-.82-.38-.5-.8.04-1.12-.74-.3-.66.38-1.16.08-1.65.02.02-.72.06-.82-.06-1.18-1.14.52-1.12.56-1.47,0,.02-1.37-2.85-1.18-2.73-.36-.22-.86.68-1.18.1-.14-.28.72-1.29.44-1.81-.52-.98-1.26.28-1.63-.92-.02-.06.82.06.84.04.36-.3.34-.5.16-.66H0v126.88h217.14c.06-.42.14-.86-.04-1.14ZM65.6,60.45c-3.12,0-6.57,3.29-7.13,3.55h-.17v-4.96h18.41l-12.79,22.25h4.77c3.12,0,6.54-3.32,7.1-3.58h.16v5h-18.5l12.82-22.25h-4.67ZM35.07,82.54c.16-.62,1.64-4.08,1.64-7.26v-10.68c0-2.37-1.15-4.86-1.28-5.42v-.13h5.95l11.73,17.32v-9.89c0-3.22-1.48-6.64-1.64-7.26v-.17h4.83v.17c-.16.62-1.68,4.04-1.68,7.26v16.24h-3.12l-13.28-19.42v12c0,3.19,1.51,6.64,1.68,7.26v.16h-4.83v-.16ZM15.99,82.57c.1-.43.86-2.79.86-5v-13.41c0-2.2-.76-4.57-.86-5v-.13h16.86v5.59h-.13c-.56-.26-3.58-4.24-6.38-4.24h-4.57v9.6h1.97c2.76,0,5.75-1.48,6.25-1.61h.16v4.4h-.16c-.49-.13-3.48-1.61-6.25-1.61h-1.97v10.19h4.67c2.79,0,5.82-3.98,6.38-4.24h.13v5.59H15.99v-.13ZM36.99,112.6h-5.92c-.92-.85-2.24-3.78-3.22-6.08-1.28-3.06-3.06-4.54-4.57-4.87h-1.51v5.82c0,2.2.76,4.57.82,5v.13h-6.61v-.13c.1-.43.86-2.79.86-5v-13.41c0-2.2-.76-4.57-.86-5v-.13h10.65c4.63,0,7.76,2.46,7.76,6.15s-2.79,5.72-6.74,6.11c2,.46,3.62,1.61,4.73,3.58,1.87,3.42,2.53,5.75,4.6,7.69v.13ZM48.11,112.96c-6.24,0-11.21-5.03-11.21-12.26s4.96-12.09,11.21-12.09,11.24,4.9,11.24,12.09-5.03,12.26-11.24,12.26ZM70.07,112.99c-2.46,0-5.52-.76-8.74-2.1v-5.39h.23c2.37,2.43,5.55,5.98,9.01,5.98,2.1,0,3.91-1.25,3.91-3.52,0-2.76-2.76-4.04-6.38-5.36-4.08-1.45-7.1-3.45-7.1-7s3.09-7,8.84-7c3.06,0,6.15,1.05,8.12,1.87v5.23h-.16c-2.2-2.17-5.52-5.62-8.64-5.62-2.33,0-3.75,1.48-3.75,3.12,0,2.43,3.12,3.65,6.8,5.06,5.29,2.14,6.74,5,6.74,7.66,0,4.8-4.27,7.07-8.88,7.07ZM90,112.99c-2.46,0-5.52-.76-8.74-2.1v-5.39h.23c2.37,2.43,5.55,5.98,9.01,5.98,2.1,0,3.91-1.25,3.91-3.52,0-2.76-2.76-4.04-6.38-5.36-4.08-1.45-7.1-3.45-7.1-7s3.09-7,8.84-7c3.06,0,6.15,1.05,8.12,1.87v5.23h-.16c-2.2-2.17-5.52-5.62-8.64-5.62-2.33,0-3.75,1.48-3.75,3.12,0,2.43,3.12,3.65,6.8,5.06,5.29,2.14,6.74,5,6.74,7.66,0,4.8-4.27,7.07-8.87,7.07ZM88.35,83.06c-6.25,0-11.21-5.03-11.21-12.26s4.96-12.09,11.21-12.09,11.24,4.9,11.24,12.09-5.03,12.26-11.24,12.26ZM118.03,112.6h-16.96v-.13c.1-.43.86-2.79.86-5v-13.41c0-2.2-.76-4.57-.86-5v-.13h16.86v5.59h-.13c-.56-.26-3.58-4.24-6.38-4.24h-4.57v9.6h1.97c2.76,0,5.75-1.48,6.25-1.61h.16v4.4h-.16c-.49-.13-3.48-1.61-6.25-1.61h-1.97v10.19h4.67c2.79,0,5.82-3.98,6.38-4.24h.13v5.59ZM139.92,95.44h-.16c-.49-.36-3.48-5.06-6.25-5.06h-1.38v17.09c0,2.2.76,4.57.85,5v.13h-6.64v-.13c.1-.43.85-2.79.85-5v-17.09h-1.41c-2.73,0-5.72,4.7-6.25,5.06h-.13v-6.51h20.51v6.51ZM161.5,95.44h-.16c-.49-.36-3.48-5.06-6.25-5.06h-1.38v17.09c0,2.2.76,4.57.85,5v.13h-6.64v-.13c.1-.43.85-2.79.85-5v-17.09h-1.41c-2.73,0-5.72,4.7-6.25,5.06h-.13v-6.51h20.51v6.51ZM169.74,89.07c-.07.43-.82,2.79-.82,5v13.41c0,2.2.76,4.57.82,5v.13h-6.61v-.13c.1-.43.85-2.79.85-5v-13.41c0-2.2-.76-4.57-.85-5v-.13h6.61v.13Z"/>
    <path class="cls-1" d="M29.11,95.34c0-3.16-1.41-5.19-4.14-5.19h-3.19v10.19h3.09c2.73,0,4.24-1.71,4.24-5Z"/>
    <path class="cls-1" d="M48.11,89.95c-3.78,0-5.69,6.01-5.69,10.81s1.91,10.85,5.69,10.85,5.72-6.08,5.72-10.94-1.94-10.71-5.72-10.71Z"/>
    <path class="cls-1" d="M88.35,60.06c-3.78,0-5.69,6.01-5.69,10.81s1.91,10.85,5.69,10.85,5.72-6.08,5.72-10.94-1.94-10.71-5.72-10.71Z"/>
  </g>
</svg>